<?xml version="1.0" encoding="UTF-8"?>
<svg id="Layer_1" xmlns="http://www.w3.org/2000/svg" xmlns:xlink="http://www.w3.org/1999/xlink" version="1.1" viewBox="0 0 256 256">
  <!-- Generator: Adobe Illustrator 29.3.1, SVG Export Plug-In . SVG Version: 2.1.0 Build 151)  -->
  <defs>
    <style>
      .st0 {
        fill: #f20e1e;
      }

      .st1 {
        fill: #42e714;
      }

      .st2 {
        fill: #e8b213;
      }

      .st3 {
        fill: #38a686;
      }

      .st4 {
        fill: #4f363b;
      }

      .st5 {
        fill: #583954;
      }

      .st6 {
        fill: #8f0bf2;
      }

      .st7 {
        fill: #541bdf;
      }

      .st8 {
        fill: #fb8c03;
      }

      .st9 {
        fill: #461dd9;
      }

      .st10 {
        fill: #3a50a2;
      }

      .st11 {
        fill: #2c4336;
      }

      .st12 {
        fill: #f1f209;
      }

      .st13 {
        fill: #67fb03;
      }

      .st14 {
        fill: #33b472;
      }

      .st15 {
        fill: #c7d421;
      }

      .st16 {
        fill: #3f3f70;
      }

      .st17 {
        fill: #212824;
      }

      .st18 {
        fill: #3f786a;
      }

      .st19 {
        fill: #f95605;
      }

      .st20 {
        fill: #57e715;
      }

      .st21 {
        fill: #24cdd0;
      }

      .st22 {
        fill: #33bc38;
      }

      .st23 {
        fill: #6f0eef;
      }

      .st24 {
        fill: #311eda;
      }

      .st25 {
        fill: #3e5072;
      }

      .st26 {
        fill: #0eee2e;
      }

      .st27 {
        fill: #aa15e6;
      }

      .st28 {
        fill: #dff904;
      }

      .st29 {
        fill: #761ddc;
      }

      .st30 {
        fill: #b46d34;
      }

      .st31 {
        fill: #1ac4df;
      }

      .st32 {
        fill: #ebcf11;
      }

      .st33 {
        fill: #ed0f31;
      }

      .st34 {
        fill: #8de317;
      }

      .st35 {
        fill: #3f647a;
      }

      .st36 {
        fill: #502ac8;
      }

      .st37 {
        fill: #c9292f;
      }

      .st38 {
        fill: #393147;
      }

      .st39 {
        fill: #273bce;
      }

      .st40 {
        fill: #f90578;
      }

      .st41 {
        fill: #c2fd01;
      }

      .st42 {
        fill: #fa3603;
      }

      .st43 {
        fill: #17e494;
      }

      .st44 {
        fill: #473c93;
      }

      .st45 {
        fill: #16e717;
      }

      .st46 {
        fill: #25ef0e;
      }

      .st47 {
        fill: #34b555;
      }

      .st48 {
        fill: #2dc299;
      }

      .st49 {
        fill: #1fd9b4;
      }

      .st50 {
        fill: #cb0df0;
      }

      .st51 {
        fill: #ed0ed8;
      }

      .st52 {
        fill: #da18c5;
      }

      .st53 {
        fill: #ef0d60;
      }

      .st54 {
        fill: #43753f;
      }

      .st55 {
        fill: #95c629;
      }

      .st56 {
        fill: #2c323b;
      }

      .st57 {
        fill: #354d39;
      }

      .st58 {
        fill: #17e3bf;
      }

      .st59 {
        fill: #601bdf;
      }

      .st60 {
        fill: #3b665c;
      }

      .st61 {
        fill: #2f262f;
      }

      .st62 {
        fill: #2ae715;
      }

      .st63 {
        fill: #303f46;
      }

      .st64 {
        fill: #f3c40a;
      }

      .st65 {
        fill: #5a32b8;
      }

      .st66 {
        fill: #2c51c4;
      }

      .st67 {
        fill: #723e3e;
      }

      .st68 {
        fill: #f61d07;
      }

      .st69 {
        fill: #f7079f;
      }

      .st70 {
        fill: #f905bc;
      }

      .st71 {
        fill: #372f27;
      }

      .st72 {
        fill: #b90eee;
      }

      .st73 {
        fill: #141011;
      }

      .st74 {
        fill: #10eca8;
      }

      .st75 {
        fill: #f87604;
      }

      .st76 {
        fill: #39432e;
      }

      .st77 {
        fill: #0df21a;
      }

      .st78 {
        fill: #2766cd;
      }

      .st79 {
        fill: #863f6c;
      }

      .st80 {
        fill: #e11a61;
      }

      .st81 {
        fill: #3b9e67;
      }

      .st82 {
        fill: #0af43f;
      }

      .st83 {
        fill: #d6811d;
      }

      .st84 {
        fill: #f00d95;
      }

      .st85 {
        fill: #583e72;
      }

      .st86 {
        fill: #b13362;
      }

      .st87 {
        fill: #76a636;
      }

      .st88 {
        fill: #ef9f0e;
      }

      .st89 {
        fill: #3f8275;
      }

      .st90 {
        fill: #665937;
      }

      .st91 {
        fill: #13e968;
      }

      .st92 {
        fill: #993c87;
      }

      .st93 {
        fill: #a5f409;
      }

      .st94 {
        fill: #33b0b2;
      }

      .st95 {
        fill: #257fcf;
      }

      .st96 {
        fill: #d1f30a;
      }

      .st97 {
        fill: #3a969e;
      }

      .st98 {
        fill: #96553d;
      }

      .st99 {
        fill: #29c976;
      }

      .st100 {
        fill: #82603d;
      }

      .st101 {
        fill: #ae2bba;
      }

      .st102 {
        fill: #73e01a;
      }

      .st103 {
        fill: #273131;
      }

      .st104 {
        fill: #e910e9;
      }

      .st105 {
        fill: #3e748e;
      }

      .st106 {
        fill: #24a7d0;
      }

      .st107 {
        fill: #f706d1;
      }

      .st108 {
        fill: #861ddc;
      }

      .st109 {
        fill: #398f88;
      }

      .st110 {
        fill: #18e37b;
      }

      .st111 {
        fill: #3f854a;
      }

      .st112 {
        fill: #3428cc;
      }

      .st113 {
        fill: #e6154c;
      }

      .st114 {
        fill: #b5f10c;
      }

      .st115 {
        fill: #17e34a;
      }

      .st116 {
        fill: #f90508;
      }

      .st117 {
        fill: #393457;
      }

      .st118 {
        fill: #3aa346;
      }

      .st119 {
        fill: #fda201;
      }

      .st120 {
        fill: #b13199;
      }

      .st121 {
        fill: #703e50;
      }

      .st122 {
        fill: #3f5639;
      }

      .st123 {
        fill: #2d83bf;
      }

      .st124 {
        fill: #3b419c;
      }

      .st125 {
        fill: #395a47;
      }

      .st126 {
        fill: #385450;
      }

      .st127 {
        fill: #1a1a1d;
      }

      .st128 {
        fill: #51412c;
      }

      .st129 {
        fill: #3d5f96;
      }

      .st130 {
        fill: #7c33b7;
      }

      .st131 {
        fill: #87ef0d;
      }
    </style>
  </defs>
  <path class="st73" d="M47.5,257c-.4-2.8,1.5-3.9,4.1-4.9,1.8-.6,3.2-1.4,5.3-1.1,1.5,0,2.6,0,4.1,0,1.9-.1,3.4,0,5.3,0,3.2.8,6.4,1,5,5.7-8,.4-15.7.4-23.8.4Z"/>
  <path class="st71" d="M79.1,243.5c.5,4.5.6,8.5.9,13.1-1.6.5-3.4.5-5.5.5-1.3-.8-1.9-1.7-1.9-3.4.1-2.1.2-3.8.2-6,0-1.7,0-3,1.1-4.4,1.9-.8,3.5-1.5,5.2.2Z"/>
  <path class="st56" d="M35.6,12.5c-.4-3.8-.5-7.2-.6-11.1,2.3-.5,4.7-.5,7.5-.5.8.4,1.1.8,1.4,1.6-.5,2.1-3.2,2.4-2.7,5.2-.1,1.9-.6,3.2-1.6,4.7-1.4,1-2.6,1.2-4,0Z"/>
  <path class="st67" d="M73.7,252.7c.3,1.4.3,2.5.3,3.9-.8.4-1.5.4-2.6.4-1-2.2-2.5-3.3-5-3.8-1.7-1.4-2.6-2.8-1.4-5.2,1.6-1.5,3-2.2,5.3-1.7,3.3,1.1,1.6,4.3,3.4,6.3Z"/>
  <path class="st57" d="M43.1,3.3c-.1-.8-.1-1.2,0-1.9,1.4-.3,2.8-.3,4.6-.3.3.5.3,1,0,1.9-.8,1.4-1.7,1.9-3.4,1.4-.6-.3-.8-.5-1.2-1Z"/>
  <path class="st25" d="M128.3,101.3c.1-2.1.2-3.7.3-5.7,0-.6,0-.9.1-1.4.2-6.3.3-12.3.3-18.7,1.2-2,2.6-2.7,4.9-1.6,1.2,1,1.7,1.9,1.5,3.5.2,6.4-.4,12.2.6,18.5-.2,2,0,3.6-.7,5.5-.3.7-.5,1-1,1.5-1.9.8-3.4.3-5.3,0-.5-.6-.7-.9-.7-1.6Z"/>
  <path class="st111" d="M60.5,41.7c.3,3.7.4,7,.4,10.8-2.2,2.9-1.6,6-1.9,9.3-.2,1.6.1,2.8-1.1,4.1-1.6.7-2.8,1.3-4.5.7-2-1.1-1.9-3-2.9-4.7-.3-2-.7-3.6-.6-5.6,0-2.2-.3-4,.5-6.1,4.2-1.6,4-5.9,6.3-8.9,1.5-.7,2.6-.8,3.8.5Z"/>
  <path class="st57" d="M56.6,65.3c.4-1.3.5-2.4.6-3.8.8-1.5,1.8-1.7,3.2-.8.3,5.7.4,11,.4,16.9-.8,1.4-1.6,2.3-3.5,1.9-2.9-.3-3.8-3.3-6.7-3.8-.6-1.7-.7-3.1-.4-4.9.2-.6.3-.9.7-1.4,2.1-1.3,4-2.2,5.6-4.1Z"/>
  <path class="st90" d="M150.4,213.5c.4,8.2.4,16.3.3,24.9-.8,1.8-1.9,2.4-4,1.8-1.1-1-1.7-1.9-1.8-3.5-.7-6.5-.6-12.4.5-18.8,1.3-2.1,2.8-3.4,5-4.4Z"/>
  <path class="st71" d="M146.5,238.7c1.4.2,2.4.1,3.8.1,1,4.4-1.1,6.1-5.2,5.9-2.5-.1-5-.1-7.9-.3-2.4-1.4-2.4-3.1-1.3-5.4,3.5-2.4,6.9-1.2,10.6-.4Z"/>
  <path class="st128" d="M184.2,198.3c-6.3.5-12.2.7-18.5.9-.7,0-1-.2-1.6-.7-1.1-1.6-.6-2.8,0-4.4,2.5-2,5.1-1.4,8.1-1.3,2.1,0,3.7,0,5.8,0,2.5,0,4.5-.2,6.7,1,.9,1.7,1.1,3-.5,4.5Z"/>
  <path class="st76" d="M213.4,162.5c.4,6.5.4,12.6.4,19.2-1,1.7-2.3,2-4.2,1.4-1.9-1.5-1.7-3.3-1.8-5.4,0-5.1-1-9.8,1.3-14.7,1.4-1.3,2.6-1.6,4.3-.5Z"/>
  <path class="st35" d="M133.1,60.5c.4-2.8.5-5.3.8-8.1.8-1,1.3-1.8,2.8-2,2-.5,3.5-.4,5.3.5,1.3,1.1,1.8,2.2,1.7,3.9-.2.7-.3,1-.6,1.7-2.2,1.3-3.2,2.7-3.3,4.9-.1,1.3-.4,2.9-2.3,3.7-1.3.4-2.1.6-3.4,0-1.8-1.3-1.8-2.7-.9-4.7Z"/>
  <path class="st103" d="M236.4,92.4c-.4-1.3-.6-2.3-.4-3.3.3-2-.7-4.7,2.1-5.6,2.6-.8,2.6,1.9,3.6,3.3,1.2,1.6,4.2,1.8,4,5-.9,1.8-2.2,2.4-4.3,2.2-2,0-3.5.2-4.9-1.6Z"/>
  <path class="st129" d="M119.6,119.3c.2-3.8,4.1-5.2,4.5-8.8,1.2-1.9,2.5-2.6,4.9-1.5,1.3,1.2,1.9,2.4,1.5,4.2-5,2.6-3.1,8.3-6.3,11.8-1.6.8-2.9.7-4.5-.3-1.4-1.9-1.9-3.4,0-5.4Z"/>
  <path class="st57" d="M47.1,6.2c6.4,1.1,5.5,5.8,5.5,10.5-1.2,1.9-2.9,1.8-5,1.5-2.5-1.3-2-3.2-2.1-5.5.2-2.5-.6-4.7,1.5-6.5Z"/>
  <path class="st126" d="M134.3,97.2c-.3-6.3-.3-12.3-.2-18.8.6-1.1,1.2-1.7,2.6-1.7.7.2.9.4,1.4.9.7,1.7,1.2,3,1.1,4.9,0,3.2.9,6.1-1.1,9-.2,1.8-.3,3.2-.5,5.1-.9,1.5-1.8,1.6-3.2.6Z"/>
  <path class="st103" d="M160.1,114.2c3-5.5,6.9-9.9,12.9-13,1.6.9,2,1.9,1.3,3.5-2.2,4.3-6.1,6.6-8.6,10.7-1.5.7-2.7.6-4.2,0-.7-.3-.9-.5-1.3-1.2Z"/>
  <path class="st57" d="M141.7,65.7c.4,4,.4,7.7.3,11.9-1.3,1.7-2.5,2.5-4.5.8-.3-.4-.4-.4-.5-.4-2.6-3.7-1.4-7.7-.8-12.1,1.9-1.3,3.4-2.2,5.5-.2Z"/>
  <path class="st54" d="M204.7,87.6c1.5,3.1.4,5.8.1,8.9-1.1,2.1-2.6,2.6-5,1.6-1.5-1.7-1.7-3.3-1.5-5.6-.4-1.9-.1-3.2.9-4.9,1.9-1.5,3.5-1.9,5.4,0Z"/>
  <path class="st54" d="M191.3,113.2c.7,3.8.6,6.9.4,10.8-1.7,2.3-3.4,1.8-5.4.7-1.8-3.5-1.1-6.8-.6-10.6,1.4-2.5,3.1-2.1,5.6-.9Z"/>
  <path class="st76" d="M240.4,126.6c.7,2.9.7,5.3-2.4,6.1-2.4.6-1.5,4-4.3,4.5-.6.2-.9.3-1.7.2-1.6-1.5-2.5-3.3-1-4.5,2.2-1.7,2.1-4.7,4.5-6.6,1.8-1,3.3-1.6,4.9.3Z"/>
  <path class="st30" d="M200.2,194.5c-1.1.4-1.8.4-2.8.5-.5.2-.7.3-1.3.4-1.3,0-2.3,0-3.7,0-.7,0-1.1.1-1.9-.1-1.7-1.9-1.7-3.5-.4-5.7,3.2-1.6,6.2-.7,9.7-.6,1.8,1.8,2.2,3.4.3,5.4Z"/>
  <path class="st98" d="M80.2,230.6c-.3,1.8-.5,3.1-.8,4.8-1,2.4-2.5,2.3-4.7,1.4-1.7-1.6-1.5-3.3-1.8-5.4.1-2.1,0-3.8,1.1-5.7,1.5-1.2,2.7-1.7,4.5-1.2,2,1.7,2.7,3.5,1.6,6.1Z"/>
  <path class="st126" d="M97.4,127.8c3.2-.4,6-.4,9.2-.4,2.2,1.2,1.8,2.9,1.3,4.9-.5.6-.8.8-1.6,1.1-3.1.8-5.8,1.3-8.9-.1-1.1-1.9-1.8-3.5-.1-5.5Z"/>
  <path class="st11" d="M196.4,127c2.9.2,5.4.3,8.3.4,2.2,1.3,2.1,3,1.2,5.2-3.2,2.3-6.2,1.8-9.8.5-1.6-1.2-2.2-2.3-1.7-4.3.4-1.1.9-1.6,2-1.9Z"/>
  <path class="st17" d="M138.2,91.9c-1.5-2.5-1-5.2-.9-8.3,1.1-2,2.4-2.5,4.4-1-.5,3.4,2.4,7.9-3.5,9.3Z"/>
  <path class="st125" d="M142.2,65.7c-1.4.4-2.7.4-4.5.4-1-.2-1.2-.7-.9-1.6,1.2-3.3-.3-7.5,4.9-8.4,2.8,1.4,2.2,3.3,1,5.7-.3,1.5-.3,2.5-.5,3.9Z"/>
  <path class="st71" d="M80.5,231.1c-.6-1.4-.8-2.8-1-4.6,0-.6,0-.9.4-1.4,2.4-.7,2.4-3,4.1-4.3,1.4-.5,2.5-.5,3.6.7-1.2,4-2.1,8.2-7.1,9.5Z"/>
  <path class="st122" d="M155.5,33.7c0,3.8,2.5,8.4-3.9,9.5-2-.2-2.3-1.5-2.5-3.5.1-2.2,0-3.9,1.1-5.9,1.8-1.5,3.4-2,5.3-.2Z"/>
  <path class="st100" d="M156,203.7c-.3,3.6.3,7.5-4.8,8.3-1.2-.3-1.7-1-1.8-2.5,0-2,0-3.5.5-5.4,1.3-1.6,2.6-2.3,4.7-1.6.6.4.9.6,1.3,1.2Z"/>
  <path class="st111" d="M245.4,96.7c.3,2.7.4,5,.3,7.8-1.1,2.1-2.5,2.5-4.7,1.5-2.3-2.4-2.6-4.9-1.6-8,.3-.8.5-1,1-1.7,1.9-1.1,3.4-1.6,5,.4Z"/>
  <path class="st122" d="M240.7,126.5c-1.3.5-2.6.5-4.6.4-1.4-.8-1.9-1.6-1.9-3-.2-2,0-3.5,1.1-5.3,1.8-1.3,3.2-1.8,5,0,.3,2.7.4,5.1.3,7.9Z"/>
  <path class="st126" d="M84.7,118.8c3.7,1.9,5.4,5.2,8.2,8.2-1.9,2.6-3.8,2.2-5.4.8-1.2-1.1-2.5-2.1-4.2-3.2-1.1-1.8-1.5-3.3-.2-5.2.6-.5.9-.6,1.7-.5Z"/>
  <path class="st18" d="M231.6,110.3c.4-1.7.5-3,.7-4.7.7-1.5,1.6-2.3,3.5-1.8.7.3.9.5,1.4,1.2,1.4,3,1,5.6.2,8.6-.3.7-.5,1-1.1,1.5-1.7.7-3,.7-4.6-.3-1.2-1.5-1.4-2.8,0-4.4Z"/>
  <path class="st67" d="M137,239.1c0,1.8,0,3.2-.2,4.9-1.7.4-3.4.9-5.3,0-1.4-1.1-1.4-2.3-1.4-4.1,1.1-3.2,3.4-2.2,5.8-2,.6.3.8.5,1.1,1.2Z"/>
  <path class="st63" d="M236.3,104.6c-1.4.3-2.3.4-3.6.5-.4-3.3-1.4-6.9,2.8-9.2.6,0,.9.1,1.5.7,1.2,3,1.9,5.5-.7,8Z"/>
  <path class="st54" d="M150.5,38.5c.5,1.5.5,2.7.6,4.3,0,1.4-.1,2.4-.2,3.8-1,1.5-2.1,2.1-4,1.3-1.6-1.6-2-3.2-1.9-5.5,0-1.5,0-2.6.8-3.9,1.7-1,3-1.2,4.7,0Z"/>
  <path class="st35" d="M133.8,16.8c1-.2,1.7-.2,2.6-.2,1.4,1,2.6,1.9,3.1,3.9.3,2.3.8,4.1-1.5,5.7-1.4.3-2.4.4-3.7-.5-1.8-1.3-2.5-2.6-2.2-4.9,0-1.7,0-3.1,1.7-4Z"/>
  <path class="st17" d="M191,78.2c3.1-5,5.7-5.3,9.1-.9,0,.6,0,.9-.3,1.5-.9.8-1.6,1.1-2.9,1.1-1.8.2-3.1.2-4.8-.5-.6-.4-.8-.5-1.1-1.1Z"/>
  <path class="st90" d="M209.8,182.1c1.4,0,2.3,0,3.6,0,.2,2.6,1.5,5.3-1.1,7.7-.9.6-1.6.7-2.8.4-1.9-2.9-2.6-5.5.2-8.1Z"/>
  <path class="st17" d="M190.6,194.6c.6.4.8.5,1.2.7-.8,4.4-4.2,3.6-7.7,3.4-.3-1-.2-1.8,0-3,1.5-3.7,3.8-3,6.6-1.1Z"/>
  <path class="st60" d="M85,118.6c0,.3-.2.3-.7.4-1.5,1.2-2.7,2.4-5,1.2-1.8-1.3-2.4-2.7-1.8-4.9.4-.7.7-.9,1.3-1.3,3.9-.6,5.9.7,6.2,4.6Z"/>
  <path class="st18" d="M47.6,5.8c-.2,2.1-.3,3.8-.5,5.8-.8,1.1-1.6,1.6-3.1,1.2-1.6-1.5-2-3-2-5.1,0-1.8,0-3.1,1.6-4.3,1.3-.3,2.2-.3,3.6-.2.4.8.4,1.5.4,2.6Z"/>
  <path class="st103" d="M218.1,124.1c.2-2.9.7-5.2,4.3-5.2.7-.1,1-.2,1.8-.1,1.6,1.6,1.2,3.3.8,5.3-1.6,1.8-3.4,1-5.3,1.3-.7-.4-1-.6-1.4-1.2Z"/>
  <path class="st111" d="M57,28.8c.3,1.5.3,2.5.4,3.9,0,.7,0,1.1-.3,1.8-1.9,1.6-3.5,1.4-5.5,0-1.6-1.9-1.4-3.6-.9-5.8,2.2-1.5,4.2-2.5,6.4,0Z"/>
  <path class="st4" d="M93,212.2c.5,3.6-.6,5.7-4.4,6-.6,0-.9-.1-1.5-.6-.9-1.9-1.2-3.4-.1-5.4,1.5-1.5,3-1.7,5-1.2.6.4.8.6,1.1,1.2Z"/>
  <path class="st122" d="M60.9,60.5c-1,.5-1.9.5-3.2.5-.5-3-.8-6.1,2.8-8,.4,2.3.4,4.7.4,7.5Z"/>
  <path class="st83" d="M150.2,208.5c.4,1.2.5,2,.7,3.2,0,.7,0,1,0,1.6-1,1.4-1.5,3-3.3,3.8-.6,0-.9,0-1.5-.6-1.5-3.1-2.1-5.9.5-8.7,1.4-.2,2.4-.4,3.6.7Z"/>
  <path class="st4" d="M120.4,222.8c-2.8-.3-5.4-.7-5.3-4.5-.2-.7-.3-1-.1-1.7,1.7-1.7,3.3-1.6,5.4-.7,1.9,1.6,1.4,3.2,1.1,5.3-.3.8-.5,1.1-1.1,1.6Z"/>
  <path class="st61" d="M115.5,216.5c-.4.5-.4.7-.5,1.2-2.9,0-5.2-.9-5-4.7,0-.7,0-1,.4-1.6,1.8-1,3.3-.8,5.1,0,1.2,1.8,1.8,3.3,0,5.1Z"/>
  <path class="st128" d="M209.5,189.6c.8.4,1.3.4,2.1.4-1.7,1.7-1.7,6.1-6.3,4.9-1.9-1.3-2.4-2.8-1.2-5,1.8-1.5,3.3-2.1,5.4-.3Z"/>
  <path class="st103" d="M173.5,97.4c-.7-3.5,0-5.8,3.9-6.4.7,0,1,.2,1.5.8,1.1,2,1.1,3.6-.2,5.5-1.8,1.4-3.3,1.9-5.3.1Z"/>
  <path class="st56" d="M119.5,118.9c.4,1.3.3,2.6.3,4.4,0,.7-.1.9-.4,1.5-1.4,1.1-2.8.5-4.4.8-.9-.2-1.4-.4-1.9-1.2,2.3-1.6,2-6.1,6.5-5.4Z"/>
  <path class="st103" d="M133.3,19.8c.4,1.7.5,3.1.7,4.8.1.7.2.9,0,1.4-2.8-.8-5.5-1.7-4.8-5.6,1.2-1.7,2.4-2.2,4.2-.6Z"/>
  <path class="st17" d="M142.8,62.1c-.4-1.6-.5-3.4-.7-5.6,0-.4,0-.4,0-.4,1.2-1.4,2.4-2.1,4.5-.5,1,3.5-.5,5.4-3.8,6.5Z"/>
  <path class="st4" d="M107.2,211.7c-3,.5-5.6.5-8.7.5-1.2-.9-1.8-1.8-1.4-3.5,3.1-2.9,6.2-2.2,9.8-.7,1.2,1.2,1.3,2.2.4,3.7Z"/>
  <path class="st57" d="M65.6,91.2c3.2.5,6,1.2,5.2,5.5-1.2,1.9-2.6,2.4-4.8,1.3-1.5-1.6-2.3-3-1.5-5.2.3-.7.5-1,1.1-1.5Z"/>
  <path class="st11" d="M142.1,82.7c-1.4.3-2.7.4-4.5.4-.4-1.4-.5-2.8-.4-4.7,1.3-.4,2.6-.4,4.3-.4.5,1.5.6,3,.6,4.7Z"/>
  <path class="st63" d="M134.3,74.4c-1.7.4-3.1.5-4.8.6-.4-1.4-.5-2.7-.4-4.6,1.2-2,2.7-2.5,5.1-1.5,1.5,1.8,1.5,3.5.2,5.4Z"/>
  <path class="st103" d="M134.1,69.7c-1.7.2-3,.3-4.6.3-.4-1.4-.4-2.8-.3-4.6,1.3-2,2.7-2.5,4.8-.9,1.7,1.8,1.7,3.3.1,5.1Z"/>
  <path class="st60" d="M236.5,97.4c-.4-.6-.5-.8-.6-1.3,0-1.3,0-2.3.2-3.7,1.4-.4,2.7-.4,4.4-.4,1.8,1.2,2.5,2.4,1,4.4-.3.3-.4.5-.5.5-1.2,1.3-2.5,2-4.5.4Z"/>
  <path class="st57" d="M241.5,96.8c-.4-1.3-.5-2.6-.6-4.4,1.3-.4,2.6-.4,4.3-.4.4,1.4.5,2.8.5,4.6-1.3.3-2.6.2-4.2.1Z"/>
  <path class="st109" d="M159.5,113.8c.6,0,.8.1,1.2.3,2.1,1.5,2.1,3.2,1.1,5.6-2,1.9-3.9,1.5-6.2.7-1.3-2.2-2-4,0-6.1,1.5-.4,2.5-.4,3.9-.4Z"/>
  <path class="st54" d="M240.7,118.5c-1.3.4-2.6.4-4.7.3-2-1.5-2.1-2.9-.5-4.5.3-.3.4-.3.4-.3,1-.9,1.8-2.1,3.8-1.3.6.3.8.4,1.2,1,0,1.7,0,3.1-.3,4.9Z"/>
  <path class="st125" d="M205.2,87.5c-1.4.4-2.8.4-5,.3-2.2-1.2-2.4-2.6-1.6-4.5.3-.7.5-.9,1.1-1.4,1.9-.8,3.4-1.1,4.8.8.4,1.7.6,3.1.6,4.8Z"/>
  <path class="st60" d="M156.1,113.7c-.1,1.5-.2,2.8-.3,4.6-.8,2.7-2.4,2.8-4.7,1.8-1.7-1.8-2.3-3.3-.5-5.4,1.2-.4,2-.5,3.2-.7.8-.3,1.2-.4,1.9-.5.3,0,.5.1.4.3Z"/>
  <path class="st89" d="M142.4,113.9c1.6.1,2.7.1,4.1.2,2.3,1.3,2.4,3.1,1.3,5.5-6.2,2.4-7.7,1.4-7.1-4.5.6-.8.9-1,1.7-1.2Z"/>
  <path class="st100" d="M205,190c0,1.7,0,2.9,0,4.5-1.5.4-2.9.4-4.7.4-.4-1.3-.3-2.5-.3-4.1.4-2.5,2.1-2,3.9-2,.6.4.8.6,1.1,1.2Z"/>
  <path class="st18" d="M142.4,19.9c3.3,0,5,1,4.8,4.5,0,.7-.2,1-.7,1.6-1.9,1.3-3.4.7-5.3,0-1.4-1.7-1.2-3.3-.4-5.2.6-.6.8-.7,1.6-.8Z"/>
  <path class="st122" d="M240.4,105.8c2-.7,3.3-.7,4.9-.8.4,1.3.5,2.7.5,4.5-1.1,1.9-2.4,3-4.9,1.7-1.9-1.5-2.5-3-.6-5.4Z"/>
  <path class="st54" d="M196.9,104.7c0,1.7-.1,3-.3,4.6-1,2.4-2.7,2.6-5.1,1.7-2.6-5.4-1.9-6.8,3.7-7.6.8.4,1.1.6,1.7,1.3Z"/>
  <path class="st17" d="M137.4,104.9c3.3.1,4.8,1.4,4.6,4.8-1,2.4-2.6,2.4-4.8,1.4-2-1.5-1.3-3.3-1.3-5.3.5-.6.8-.8,1.5-.9Z"/>
  <path class="st56" d="M129.3,109.8c-1.7.2-3,.3-4.7.4-.4-1.4-.4-2.8-.4-4.6.9-1.6,1.8-2.7,4-2.1.7.2.9.3,1.5.7.9,1.5,1.6,2.8.8,4.6-.4.5-.6.7-1.2,1.1Z"/>
  <path class="st89" d="M65.8,97.2c1.7-.1,3-.2,4.6-.1.4.8.5,1.5.5,2.7.4.9.6,1.5.4,2.5-1.6,1.5-3.2,1.1-5.1.9-1.7-1.3-2.3-2.7-1.7-4.8.5-.6.7-.8,1.3-1.2Z"/>
  <path class="st60" d="M205.2,132.5c-.2-1.7-.1-3,0-4.6,1.4-.5,2.7-.6,4.9-.5,2.2,1.8,1.8,3.4.7,5.5-2,1.5-3.7,1.5-5.5-.4Z"/>
  <path class="st63" d="M178.5,88.5c-.8-3.3-.6-5.8,3.8-5.7.7,0,1,.1,1.6.6,1.4,1.9.9,3.4-.3,5.1-1.8,1.2-3.3,1.8-5.1,0Z"/>
  <path class="st103" d="M204.8,82.7c-1.3.3-2.5.3-4.1.2-2.5-.8-2.4-2.3-1.2-4.3.3-.3.5-.7.6-.8,2.7.3,5.4.8,4.8,4.9Z"/>
  <path class="st60" d="M190.5,77.8c.6,0,.8.1,1.3.4,1.9,1.2,2.3,2.6,1.3,4.8-1.6,1.4-2.9,2.2-5.2,1.5-.7-.3-1-.4-1.6-1-1-1.9-1.6-3.4.5-5,1.4-.4,2.4-.5,3.8-.7Z"/>
  <path class="st105" d="M97.4,127.4c.5,1.3.6,2.6.6,4.2-.9,2.4-2.5,2.7-4.9,1.9-1.6-1.7-2.4-3.3-.7-5.4.5-.5.5-.6.6-1.1,1.4,0,2.7,0,4.4.3Z"/>
  <path class="st18" d="M137.1,110c1.7,0,2.9,0,4.5,0,.6,1.1.9,2.2,1.3,3.6,0,.3-.3.4-.7.4-1.4,1.4-2.7,2.2-4.9,1-1.6-1-1.5-2.3-1.4-4,.4-.6.6-.8,1.3-1.1Z"/>
  <path class="st103" d="M155.8,33.7c-1.3.3-2.6.3-4.6.1-1.9-1-2.5-2.1-1.5-3.8.4-.5.6-.7,1.2-.9,3.4-.2,5.1,1,4.9,4.6Z"/>
  <path class="st17" d="M231.6,136.6c.6.4.8.5,1.3.6-.7,2.6-2.7,4-5.6,4.7-.6,0-.9-.2-1.3-.8-.6-1.7-.5-3,.4-4.6,1.8-1.3,3.4-1.8,5.2.1Z"/>
  <path class="st76" d="M199.8,97.2c1.7-.2,3-.3,4.6-.4.9,3-.1,4.8-3.6,5.2-.6,0-.9,0-1.5-.5-1.2-1.7-1.4-3.1.5-4.4Z"/>
  <path class="st128" d="M165.1,199.1c-.5,2.6-1.2,4.9-4.8,4.7-1.7-1.1-2.6-2.4-1.5-4.6.4-.7.6-.9,1.2-1.4,1.7-.4,2.9-.8,4.4.5.3.3.6.6.7.7Z"/>
  <path class="st76" d="M224,145.6c-.3,2.9-.6,5.5-4.9,5.3-2.1-1.4-2.3-2.8-1.3-4.8,1.4-1.5,2.7-2.2,4.8-1.7.7.4.9.6,1.3,1.2Z"/>
  <path class="st103" d="M146.8,47.4c1.4-.2,2.3-.2,3.7-.4.5,2.5.8,5.1-2.9,6.1-.6,0-.9,0-1.4-.4-.7-1.5-1.5-2.7-.6-4.4.4-.5.6-.7,1.2-.9Z"/>
  <path class="st122" d="M219,151c0,1-.1,2-.3,3.3-.9,2-2.1,2.9-4.6,2.1-1.1-.4-1.7-.8-2.3-1.8-.7-1.9-.7-3.2.8-4.6,2.1-.5,3.8-1.4,5.6.5.3.4.6.5.8.6Z"/>
  <path class="st17" d="M74.4,105.6c3.7-.5,5.3.9,5.2,4.4-1.3,1.5-2.7,2-4.8.8-1.3-1.6-2.1-3-.4-5.3Z"/>
  <path class="st127" d="M213.7,155.2c1.7-.3,3-.3,4.6-.5.5,2.7-.2,4.9-4.2,5.1-2.1-1.6-2.4-3-.4-4.6Z"/>
  <path class="st81" d="M51.9,19.7c.3,1.8.4,3.2.6,4.9-.1.6-.3.9-.9,1.4-1.7.9-2.9.5-4.4-.5-.9-1.9-1.5-3.5-.5-5.6,1.8-1.5,3.3-1.7,5.2-.2Z"/>
  <path class="st17" d="M240.6,109.9c1.8,0,3.1,0,4.8,0,.5,2.6-.9,3.9-3.9,4-.4,0-.6,0-.7,0-1.6-1.2-2.9-2.5-.2-4.1Z"/>
  <path class="st57" d="M57.2,29c-1.4.2-2.8.1-4.6,0-1.9-.7-2-1.8-1.2-3.6.3-.4.7-.4.9-.4,2.3.5,4.7.7,4.9,4Z"/>
  <path class="st17" d="M133.9,64.9c-1.6.1-2.8.1-4.4.2-.8-2.7.7-4,3.4-4.8.5,1,.7,2.1,1,3.6.1.6.2.8,0,1.1Z"/>
  <path class="st11" d="M56.5,34.4c.5-.6.5-.8.7-1.2,2.4.9,3.8,2.4,3.6,5.5-1,1.7-2.4,1.9-4.3,1.2-1.8-1.9-1.6-3.5,0-5.5Z"/>
  <path class="st18" d="M66,90.6c0,.6,0,.7-.2,1.2-1.2,1.7-2.6,2.4-4.8,1.2-1.3-1.3-1.9-2.4-1.5-4.3.3-.7.5-1,1-1.6,1.8,1.3,5.3-.5,5.4,3.4Z"/>
  <path class="st100" d="M159.9,198.7c.2,1.8.2,3.1,0,4.7-1.1.5-2.1.6-3.4.7-.4,0-.6-.2-.7-.3-1.6-1.5-2.3-3.1-.7-5.4,1.8-1,3.2-1.3,4.8.2Z"/>
  <path class="st5" d="M120.6,231.2c-.4-1.8-.4-3.2-.4-5,1.1-1.6,2.4-1.8,4.4-1.1,1.7,1.9,1.7,3.5.4,5.7-1.4,1.6-2.7,1.8-4.4.4Z"/>
  <path class="st126" d="M147.2,119.1c-.2-1.6-.2-2.9-.3-4.5,1.1-.4,2.2-.4,3.7-.4.4,1.3.3,2.5.3,4.1,0,.6-.1.9-.5,1.5-1.4.9-2.4.7-3.3-.7Z"/>
  <path class="st60" d="M61.1,86.6c0,.6,0,.8-.1,1.3-.9,1.1-1.7,1.9-3.5,1.5-.7-.2-.9-.4-1.5-.9-.7-1.8-1.4-3.1-.4-5.1.3-.7.4-.9,1-1.4,1.6-.6,2.8-.8,4,.7.4,1.4.5,2.4.5,3.9Z"/>
  <path class="st60" d="M134,97.4c.9-.4,1.8-.4,3.1-.3.4,1.4.5,2.8.4,4.6-.9,1.5-2,1.6-3.3.5-.2-1.7-.2-3.1-.2-4.9Z"/>
  <path class="st35" d="M173.1,97.5c1.3-.5,2.5-.6,4.2-.6.7.2,1,.3,1.6.7,1.2,1.5,1,2.7-.1,4.1-1.8,1.1-3.3,1.6-5-.2-.3-.4-.6-.4-.7-.4,0-1.1,0-2.1,0-3.6Z"/>
  <path class="st128" d="M79.4,243.4c-1.3.5-2.5.5-4.1.6-1.8-.7-2.2-1.9-1.6-3.9,1.6-1.7,3.1-2.3,5.2-.7.4,1.5.5,2.5.5,4Z"/>
  <path class="st105" d="M178.1,88.5c1.3-.4,2.6-.5,4.2-.5.7,0,1,.2,1.6.7,1.1,1.6,1.1,2.8-.2,4.2-2,.9-3.5,1.5-5.2-.4-.4-.6-.5-.8-.6-1.2,0-1,0-1.7.2-2.7Z"/>
  <path class="st90" d="M79.3,239.5c-1.3.4-2.5.4-4.1.4-.6-.1-.8-.2-1.3-.6-.4-1-.6-1.7.3-2.8,1.8-.5,3.1-.5,4.7-.6.4,1.1.4,2.1.3,3.6Z"/>
  <path class="st63" d="M133.7,19.8c-1.3.3-2.5.2-4.1.2-.8-3.5,1.4-3.8,4.4-3.5.2,1,0,2-.2,3.3Z"/>
  <path class="st122" d="M146.6,51.6c.4.5.4.7.5,1.2,0,1,0,1.7-.2,2.7-1.4.4-2.7.4-4.5.5-.4-1.1-.5-2.2-.3-4.1,1.6-1.9,2.9-2.1,4.5-.4Z"/>
  <path class="st125" d="M61,82.6c-1.1.4-2.1.4-3.5.4-2.5-1.1-2.5-2.6-.8-4.7,1.5-.3,2.4-.3,3.8-.3.4,1.4.5,2.8.5,4.6Z"/>
  <path class="st67" d="M87.6,216.8c.4.5.4.7.6,1.2,0,1.2-.1,2.2-.3,3.6-1,.4-1.9.5-3.2.5-.6,0-.9-.2-1.6-.6-1.5-1.9-.9-3.3.3-5,1.6-1,2.8-1.1,4.2.4Z"/>
  <path class="st127" d="M129,104.8c-1.6.3-2.9.3-4.4.3-.5-2.5.8-3.8,3.5-4.3.4.1.6.3.8.8.9,1.1,1,1.9.1,3.1Z"/>
  <path class="st63" d="M186.8,78.3c.3,1.3.3,2.5.2,4.2-.7,1.8-1.8,1.9-3.4,1.1-.3-.3-.6-.5-.7-.7.3-2.3.5-4.6,3.9-4.6Z"/>
  <path class="st17" d="M120.3,231.1c1-.3,1.9-.2,3.6,0,1.8,1.1,2.4,2.2,1.3,4-.4.5-.7.6-1.3.8-3-.4-3.8-2.1-3.6-4.9Z"/>
  <path class="st17" d="M224.3,119.3c-.6-.3-.8-.4-1.3-.4.4-2,.3-4.4,3.4-4.9.6,0,.9.1,1.5.6,1.4,1.9.8,3.2-.3,4.9-1.3.8-2.1.7-3.3-.2Z"/>
  <path class="st4" d="M129,240.2c-2.5-.5-5-.5-5.4-3.8-.1-.4.2-.4.4-.4,1.2-1.4,2.5-2.3,4.7-1.1,1.5,1.1,1.9,2.2,1.4,4-.3.7-.5,1-1.1,1.4Z"/>
  <path class="st56" d="M231.5,110c.4,1,.4,2.1.2,4-1.4,2-2.6,2.2-4.2.6-.3-.3-.6-.4-.7-.5.4-2.5,1.6-4,4.6-4Z"/>
  <path class="st17" d="M191.6,110.3c1.7-.3,3-.4,4.7-.6.5,2.6-.7,4.1-3.8,4.2-.4,0-.8,0-1,0-.8-1.1-1.1-2.3.2-3.6Z"/>
  <path class="st127" d="M196.8,126.7c0,.5-.3.7-.7,1-4.2,2.3-4.8,1.9-5.2-3.3.2-.5.7-.5.9-.5,2.2,0,4,.3,4.9,2.7Z"/>
  <path class="st63" d="M142.8,19.7c0,.4-.3.4-.7.5-1.3,1-2.4,1.2-3.9,0-.7-1.2-1-2.2-1.4-3.4,2.1.2,5-.9,6,2.8Z"/>
  <path class="st18" d="M74.2,110.7c1.9-.6,3.3-.5,5-.4.3,1,.2,2,.1,3.2,0,.3-.2.4-.3.5-1,1.1-2,1.8-3.9,1-1.4-1.2-1.9-2.3-.9-4.4Z"/>
  <path class="st63" d="M134.3,47.4c-.5-1.8-.6-3.1-.8-4.9.7-1.8,1.9-2.1,3.8-1.7,1.9,1.4,2,2.9,1.2,5.1-.3.7-.4,1-.9,1.7-1.3.7-2.2.8-3.3-.2Z"/>
  <path class="st86" d="M124.2,225.9c-1.4.1-2.3,0-3.6-.1-.4-.7-.5-1.4-.6-2.4,0-.5.1-.7.3-1.2,1.1-1.6,2.3-1.8,4.2-.8,1.1,1.7,1.3,3-.2,4.5Z"/>
  <path class="st11" d="M70.5,102.4c.3-.8.3-1.3.4-2,1.7.8,4,1.3,4.1,4.3,0,.3-.3.5-.4.6-1.1,1.2-2.2,1.4-3.8.4-.9-1.1-1-2-.3-3.3Z"/>
  <path class="st60" d="M147.2,24.9c2.2.2,4.1.6,4.1,3.7.1.4-.2.4-.4.4-1,1.2-2.1,1.7-4,.8-1.4-1.4-1.6-2.6-.5-4.3.3-.4.6-.6.8-.7Z"/>
  <path class="st25" d="M134,47c.8,0,1.6,0,2.8.1,2,1.1,2.3,2.5.7,4.5-1.1.4-1.9.4-3.1.4-.5-.7-.5-1.4-.6-2.5-.2-.8-.3-1.3,0-2.2.2-.3.3-.3.3-.3Z"/>
  <path class="st105" d="M107.3,132.3c-.3-1.6-.3-2.9-.2-4.5.8-.4,1.5-.5,3-.4,2.3,4.6,1.9,5.2-2.8,4.8Z"/>
  <path class="st89" d="M217.5,123.7c.6,0,.7.1,1.2.3,1.1.9,1.4,1.8.9,3.4-1.8,1.6-3.5,1.8-5.7.9-1-1.3-1.1-2.3-.2-3.8,1.4-.5,2.4-.6,3.8-.8Z"/>
  <path class="st126" d="M112.6,124c.8,0,1.3,0,2.2.2,1.2.8,1.6,1.7,1.2,3.2-1.6,2-3.2,1.7-5.3.9-.5-.2-.5-.7-.5-1,.2-1.6.2-3.1,2.5-3.4Z"/>
  <path class="st111" d="M52.3,19.8c-1.3.4-2.5.4-4.1.4-1.2-.7-1.3-1.6-.6-3,1.6-.3,2.9-.2,4.6-.1.4.8.3,1.6.2,2.7Z"/>
  <path class="st63" d="M134.2,39.4c-.4-1.8-.4-3.2-.3-5,.9-1.3,1.9-1.6,3.6-1.1,2.1,1.8,1.6,3.7.8,5.9-1.4,1-2.5,1.2-4,.2Z"/>
  <path class="st16" d="M137.5,33.8c-1.2.2-2,.2-3.1.2-.4-1.4-.5-2.8-.5-4.6.7-1,1.4-1.7,2.8-1.6.7.3.9.5,1.4,1,.7,1.9,1.3,3.4-.6,4.9Z"/>
  <path class="st67" d="M97.8,208.6c.3,1.3.3,2,.3,3.2-1.4.5-2.8.7-4.6.8-.4,0-.5-.3-.5-.4-.8-1-1.3-1.9-.7-3.6,1.9-1.8,3.6-1.9,5.5,0Z"/>
  <path class="st127" d="M226.6,140.7c.3.5.4.7.4,1.1,0,1.9-.3,3.4-2.5,4.1-.3,0-.7,0-.9,0-.9-1-1.7-1.9-1.1-3.6.5-.9.9-1.3,1.7-1.9,1-.3,1.5-.2,2.4.4Z"/>
  <path class="st25" d="M137.5,28.6c-1.2.4-2,.4-3.2.5-.5-.7-.6-1.4-.8-2.5,0-.6.2-.8.4-1.3.9-.3,1.6-.3,2.7-.3,1.7.8,1.8,1.9.9,3.6Z"/>
  <path class="st103" d="M213.7,124.1c.3.7.3,1.4.2,2.5-.6,1.7-1.7,2-3.4,1.4-.4-.2-.5-.6-.5-.8.2-2.2,1.4-3.1,3.7-3.1Z"/>
  <path class="st54" d="M57.1,38.9c1.3,0,2.2,0,3.4.1.4.8.4,1.5.4,2.6-1,.3-1.9.3-3.1.3-.6,0-.9-.1-1.3-.5-.5-1.1-.3-1.9.7-2.5Z"/>
  <path class="st89" d="M133.9,101.9c.9,0,1.9.1,3.1.2.4.7.5,1.5.7,2.5,0,.4-.3.3-.6.4-.9.7-1.8,1.1-3.2.7-1.1-1.1-1.2-2-.4-3.3.3-.4.3-.4.4-.4Z"/>
  <path class="st103" d="M133.7,39.3c.9-.3,1.7-.3,2.9-.3,1.2.6,1.3,1.4.7,2.7-1.2.4-2.1.4-3.4.5-.3-.8-.3-1.7-.2-2.8Z"/>
  <path class="st90" d="M213.8,162.5c-.9.4-1.8.5-3,.5-.6,0-.9-.2-1.5-.6-.8-1.2-.7-2,0-3.1,1.5-.9,2.6-1,3.9.3.3.4.6.4.8.4,0,.7,0,1.4-.2,2.5Z"/>
  <path class="st122" d="M200.2,102.1c-.2,1.4-.4,2.9-2.7,3-.4,0-.8-.2-1-.3-.8-.9-1-1.8-.4-3.1,1.1-1,2-1,3.3-.2.3.3.7.5.9.6Z"/>
  <path class="st121" d="M107.3,212.3c-.4-.9-.3-1.6,0-3.2,1.1-1.4,1.9-1.5,3.2-.7.8,1.2.8,2.1-.1,3.2-.3.3-.3.7-.3.8-.8,0-1.6,0-2.7-.1Z"/>
  <path class="st4" d="M130.7,239.6c.3,1.3.3,2.4.3,3.9-2.1.6-2-1.1-2.4-2.7,0-.3.3-.7.4-.8.5-.5.9-.6,1.6-.3Z"/>
  <path class="st103" d="M155.8,113.3c-.2.2-.6.4-1.3.5.2-.2.6-.4,1.3-.5Z"/>
  <path class="st103" d="M133.8,47.1c.1.3.1.8,0,1.6-.1-.2-.1-.8,0-1.6Z"/>
  <path class="st56" d="M128.8,94.1c0,0,0,.3,0,.8,0,0,0-.4,0-.8Z"/>
  <path class="st128" d="M196,195.4c0-.2.2-.3.8-.3,0,.1-.3.3-.8.3Z"/>
  <path class="st85" d="M35.5,69.1c-.2-4.2-.3-8.2-.3-12.6.8-1.6,1.7-2.2,3.6-1.7,1.6,1.2,2,2.6,2.4,4.5-.8,3.8,3.1,3.9,4.1,6.5.7,2,.4,3.6.5,5.1.4,4.4-1.5,5.4-6.5,3.5-.5-.4-.4-.5-.4-.4-1.5-1.2-2-3.2-3.4-4.9Z"/>
  <path class="st65" d="M74.3,151.3c-.2-4.7-.1-9.1-.2-13.8,0-.7.2-1,.7-1.5,1.5-.7,2.7-1.3,4.3-.2,1.4,1.4,2.4,2.6,2.7,4.7-.2,3.8,0,7.3-1.7,10.9-1.4,1.2-2.5,1.9-4.3,1.1-.7-.3-1-.5-1.5-1.1Z"/>
  <path class="st117" d="M39.1,55.8c-1.3.2-2.2.3-3.5.3-.4-5.4-.4-10.8-.4-16.7.9-1.6,2-2.1,3.9-1.3,3.5,5.3,2.5,10.7,1.4,16.5-.5.6-.7.8-1.4,1.2Z"/>
  <path class="st38" d="M39,74.4c6.4-.2,4.8-4.9,5.2-9.4,1-1.5,1.9-1.6,3.2-1,1.2,1.6,1.9,3,2.3,5.1.2,3.1.6,5.7-.4,8.7-.4.7-.6,1-1.3,1.4-1.5.3-2.4.3-3.7-.6-2.6-.5-4.8-.8-5.2-4Z"/>
  <path class="st4" d="M57.6,203.3c-3.5.4-6.6.4-10.2.4-2.3-1.1-1.7-2.9-1.5-5,2-1.9,4.2-1.9,6.8-2.1,2.1,0,3.7-.3,5.4,1.2.5,2,1.4,3.6-.5,5.4Z"/>
  <path class="st61" d="M31,208.5c-2.3,4.1-7.3,5.6-10.8,3.4-2.5-1.6-1.5-2.7.9-3.7,1.5-1.4,3.1-1.9,5.1-2,1.4-.3,2.3,0,3.6.5.8.5,1,.9,1.1,1.8Z"/>
  <path class="st17" d="M66.6,223.4c-.4-3.4-.4-6.5-.3-10.1,1.3-2.1,2.9-2.3,5.2-1.1,2,2.9,1.4,5.8,1.2,9.1-.1.9-.2,1.2-.6,2-1.9,1.4-3.5,1.5-5.5.2Z"/>
  <path class="st56" d="M46.6,78.4c.5-.4.7-.4,1.1-.4,1.2-1,2.2-1.9,4.2-1.3,2.3,1,2.1,2.7,2.2,4.8-.2,1.9.3,3.5-.7,5.3-.4.6-.6.8-1.2,1.1-3.6.5-4.9-1.1-5.2-4.5-1.3-1.6-2-3-.4-5Z"/>
  <path class="st16" d="M39.1,38.8c-1.4.2-2.3.2-3.5.1-.4-1.4-.5-2.7-.7-4.5-1.3-1.6-2.3-3-1.7-5.3,0-1.2.2-1.8,1-2.8,4.8-1,6.7.3,7.1,4.2.2,2.1.2,4.3-.7,6.9-.5.7-.8.9-1.5,1.4Z"/>
  <path class="st38" d="M35.7,26.3c-.4.9-.5,1.4-.7,2.3-1.3,1.7-2.6,2.2-4.4.4-.3-2.9-.3-5.5-.3-8.4,1.1-2.2,2.6-2.8,5-1.7,2,2.4,2.1,4.7.4,7.4Z"/>
  <path class="st61" d="M57.5,252.5c-1.9.4-3.4.6-5.2-.3.2-3.3-.7-7.4,4.9-7.8,1.5,1,1.9,2,1.8,3.6,0,1.8,0,3.2-1.5,4.5Z"/>
  <path class="st16" d="M51.9,181.8c.2-5.7,5.3-6.2,8.6-9,.6,0,.9,0,1.4.5,1,1.4.7,2.5,0,3.9-1.7,1.2-2.9,2.3-3.8,3.8-1.1,1.9-2.5,3.6-5.4,2.1-.5-.5-.6-.7-.8-1.3Z"/>
  <path class="st38" d="M61.4,110.8c-4.4-1.2-4.1-4.8-4.2-8.8,1-1.6,1.9-2.1,3.5-1.4.6.3.9.4,1.4.9.4,1.2.8,1.9.9,3.2.1,1.8.3,3.2-.5,4.9-.3.6-.5.8-1,1.2Z"/>
  <path class="st44" d="M71.5,127.3c-.4-1-.6-1.6-.7-2.6-1-1.7-2.1-3.1-.9-5.5,4.5-3.6,5.3-.2,6.4,3.2.2,1.4.3,2.4,0,3.8-.2.7-.4,1-.9,1.6-1.6.7-2.7.9-4-.5Z"/>
  <path class="st79" d="M44.3,203.3c-1.1.3-1.9.4-3,.5-.5.2-.6.4-.9.3-.4-.2-.6-.2-1.5-.4-2-1.5-1.8-3-.8-4.9,1.5-1.4,3-1.9,5-1.4.7.3,1,.4,1.6.9.8,1.8,1,3.3-.4,5Z"/>
  <path class="st117" d="M52.6,97c-.2-1.7-.2-3-.2-4.7.9-1.8,2-2.5,4.1-1.7.7.3.9.4,1.4,1,.8,1.8,1.2,3.2.4,5.1-.3.7-.5.9-1.1,1.4-1.9.7-3.4,1.1-4.6-1.1Z"/>
  <path class="st44" d="M46.6,182.3c1.7-1.2,3.1-.9,5-.8.4,0,.5.3.5.5,1.5,1.4,2.1,2.8,1,5.1-1.4,1.2-2.7,1.7-4.6,1.3-.8-.1-1.2-.2-1.9-.6-1.1-1.9-1.2-3.5,0-5.4Z"/>
  <path class="st16" d="M65.9,168.3c0-3.2.5-5.7,4.5-5.4.7,0,1,.2,1.6.7,1.2,1.6.8,2.8,0,4.4-1.4,1.5-2.8,2.3-4.9,1.6-.7-.4-.9-.6-1.3-1.2Z"/>
  <path class="st117" d="M60.9,172.9c0-2.9.5-5.2,4.4-5,.4,0,.7,0,.8.2,1.5,1.4,1.8,2.9.7,5.1-1.8,1.5-3.3,2.1-5.4.5-.4-.3-.5-.6-.6-.7Z"/>
  <path class="st117" d="M70.5,118.4c.4,2.1.3,3.6.2,5.6-2.8.1-5.4-.3-5-4.4,0-.6,0-.9.4-1.4,1.5-.9,2.7-1.4,4.4.3Z"/>
  <path class="st61" d="M61.6,236.5c-.6-3.1-.2-5.5,3.8-5.5.7,0,1,.2,1.6.6,1.3,1.9,1.4,3.4,0,5.2-2,.8-3.6,1.5-5.4-.3Z"/>
  <path class="st5" d="M65.8,231c0-1.4,0-2.8.3-4.5,1.2-1.9,2.7-2,4.8-1.4,1.5,1.5,2.3,2.8,1.6,5-.3.7-.4,1-.9,1.6-1.8,1-3.3,1.6-5-.3-.3-.4-.6-.4-.7-.4Z"/>
  <path class="st5" d="M31.3,208.9c-.6-.1-.9-.2-1.3-.4-1-1.3-2-2.5-1.1-4.7,1.9-1.6,3.7-2,6.1-1.2,1.5,2,2.1,3.7.2,5.8-1.5.4-2.5.4-4,.5Z"/>
  <path class="st61" d="M65.8,119.1c-3-.1-5-1.1-4.6-4.8,1.3-1.9,2.8-2.3,5-1.1,1.5,1.8,2,3.3.4,5.4-.3.4-.6.5-.8.5Z"/>
  <path class="st61" d="M66.2,209c-3-.2-5.2-.9-5-4.9,1.4-2.1,2.9-2.1,4.8-1.1,1.4,1.5,2.2,2.8,1.4,4.8-.4.6-.6.8-1.3,1.2Z"/>
  <path class="st127" d="M30.3,29.1c1.3-.3,2.6-.2,4.2,0,.4,1.4.4,2.8.4,4.6-3,.3-4.9-.8-4.6-4.5Z"/>
  <path class="st5" d="M26.4,208c-1.7.9-3.1.9-4.7.2-.3-1.1-.3-2.1-.2-3.5.8-1.8,2-2.3,4.1-1.9,2.3,1.5,2.4,3,.8,5.2Z"/>
  <path class="st17" d="M30.1,195.3c0-3.3,1.1-5.2,4.7-5.1,1.7,1.1,2.5,2.4,1.4,4.6-1.3,1.7-2.7,2.2-4.8,1.8-.6-.4-.9-.6-1.3-1.3Z"/>
  <path class="st127" d="M52.4,97c1.3-.2,2.6,0,4.3,0,2.2,1,2.4,2.3,1.2,4.4-.3.4-.6.5-.8.5-3.1-.1-4.8-1.5-4.7-5Z"/>
  <path class="st127" d="M35.5,20.1c-1.8,0-3.1,0-4.8.1-.6-2.8,1.2-3.7,3.9-4.2,1-.3,1.6-.2,2.3.6.6,1.7.4,2.8-1.4,3.4Z"/>
  <path class="st65" d="M35.5,195.6c-.4-2-.4-3.3-.3-5.1,1.1-.5,2.3-.2,3.4-1.4.6,0,.8,0,1.3.5.7,1.6,1.4,2.9.5,4.8-.2.7-.4.9-.8,1.4-1.4.7-2.5,1.1-4.1-.2Z"/>
  <path class="st79" d="M57.5,203.7c-.4-1.3-.4-2.6-.5-4.2.8-1.7,2-2.3,4-1.6,1.5,1.8,2.1,3.4.4,5.4-.4.3-.4.6-.4.8-.2,0-.4,0-.9,0-.4.1-.5.3-.7.2-.6-.3-1-.4-1.8-.5Z"/>
  <path class="st85" d="M61.2,236.5c1.3-.4,2.6-.5,4.3-.6,2.2,1.1,2.7,2.6,1.6,4.4-1.1,1.8-2.8,1.8-5.1.9-.7-.6-1-.9-1.1-1.7.2-1.3.2-2,.3-3Z"/>
  <path class="st85" d="M71.1,127.4c1-.4,1.9-.3,3.2-.3,2.6.8,2.7,2.6,2,5-1.7,1.4-3,1.6-4.8.2-.4-1.8-.4-3.1-.4-4.9Z"/>
  <path class="st61" d="M71.1,132.3c.9-.3,1.8-.3,3.1-.2,2.5.9,2.6,2.4,1.1,4.5-.4.4-.8.5-1,.5-3-.3-3.3-2.2-3.2-4.8Z"/>
  <path class="st38" d="M71.1,212.8c-1.7.2-2.9.1-4.5,0-.5-1-.6-2-.8-3.4,0-.4.2-.5.4-.6,1.3-1.7,2.8-2,5-1.1,1.2,1,1.5,1.9,1.1,3.4-.3.7-.5,1-1.2,1.5Z"/>
  <path class="st85" d="M66.2,113.9c-1.7.1-3,0-4.6,0-.4-.7-.5-1.5-.6-2.5,0-.5.1-.7.3-1.1,1-1.7,2.2-2.5,4.4-1.5,1.5,1,1.9,2.1,1.7,3.8-.4.7-.6.9-1.2,1.3Z"/>
  <path class="st16" d="M57.4,91.7c-1.6.3-2.9.2-4.5.2-.5-1.1-.7-2.1-1-3.5-.1-.4.2-.3.4-.3,1.1-1.7,2.4-1.9,4.3-.5.3.3.5.3.5.4.9,1,1.4,2.1.2,3.7Z"/>
  <path class="st117" d="M71.5,160.5c-.4-1.8-.5-3.2-.5-5,1.1-1.7,2.4-2.1,4.4-1.4,2.1,1.8,1.6,3.6.8,5.8-1.6,1.5-2.9,1.7-4.7.6Z"/>
  <path class="st56" d="M24.8,199.2c.5-2.8,1.9-4.1,4.8-4.3.4,0,.5.2.6.3,1,.9,1.6,1.7,1.2,3.4-.2.6-.4.9-.8,1.4-1.6.6-2.9,1.4-4.7.3-.6-.4-.8-.6-1.1-1.2Z"/>
  <path class="st61" d="M35.2,208.7c-.3-1.3-.2-2.5-.1-4.2.6-1.8,1.7-2.1,3.5-1.5.4.2.4.6.4.8-.2,2.5-.4,4.7-3.8,4.9Z"/>
  <path class="st38" d="M60.6,239c.4,0,.5.3.6.7.9,1.3,1.9,2.3,1.1,4.2-1.3,1.4-2.5,1.7-4.2.6-.3-.4-.6-.5-.8-.5,0-2.3,0-4.6,3.3-5.1Z"/>
  <path class="st61" d="M46.7,181.9c.3,1.4.3,2.6.3,4.3,0,1.4-.7,1.9-2,2.1-1-.2-1.5-.5-1.8-1.5,1-2,.2-5,3.6-4.9Z"/>
  <path class="st38" d="M35.3,69.2c2.8-.2,3.9,1.4,3.6,4.5-2.5,0-3.6-1.7-3.6-4.5Z"/>
  <path class="st16" d="M36.1,17.1c-.6-.5-.7-.6-1-1,0-1.1,0-2.1.2-3.5.9-.4,1.8-.5,3-.6.6,0,.9.2,1.6.7,1.4,1.9,1.4,3.4-.2,5.1-1.5.6-2.4.4-3.6-.7Z"/>
  <path class="st16" d="M42.8,186.4c.5.1.6.3.9.5.9.8,1.4,1.6,1,3.2-1.6,1.5-3.1,2.2-5.2.9-.5-.5-.5-.8-.5-1.5,0-2.8,1.7-2.9,3.8-3.1Z"/>
  <path class="st61" d="M25.3,203.7c-1.3.4-2.2.4-3.5.6-.2-2-.5-4.4,2.5-5.4.3,0,.6,0,.8.2,1.4,1.4,2,2.8.2,4.7Z"/>
  <path class="st61" d="M75,154.8c-1.4.2-2.3.2-3.5.2-.4-1.8-.3-3.6,2.4-4.1.3,0,.8,0,1,0,1.3,1.1,1.6,2.3.2,3.8Z"/>
  <path class="st61" d="M46.6,78.1c.4,1.4.4,2.7.4,4.5-2.6.2-3.1-1.6-3.2-4.1.8-.4,1.6-.4,2.8-.4Z"/>
  <path class="st5" d="M44.3,203.7c-.3-1.3-.3-2.6-.2-4.3.7-1.2,1.5-1.3,2.7-.6.3,1.6.2,2.9.2,4.5-.8.4-1.5.4-2.7.4Z"/>
  <path class="st38" d="M71,225.8c-1.6.1-2.8.2-4.5.2-.4-.7-.4-1.5-.4-2.6,1.3-.4,2.5-.5,4.1-.5,1.3,0,1.6.7,1.7,1.8-.2.6-.4.8-.9,1Z"/>
  <path class="st65" d="M71.1,160.4c1-.5,1.8-.7,3.1-.9.6,0,.9.1,1.6.5.6.9.7,1.5.6,2.6-1.2,1.9-2.7,2.1-4.7,1.5-.5-.4-.5-.6-.7-1.2,0-1,0-1.6.1-2.7Z"/>
  <path class="st4" d="M59.3,203.9c0,0,.2-.2.4-.1.1,0,0,.3,0,.3,0,0-.3,0-.3-.1Z"/>
  <path class="st4" d="M40.2,204c0-.1.3-.2.5-.2.2,0,0,.3,0,.3,0,0-.3,0-.4-.1Z"/>
  <path class="st121" d="M66,247.8c0,1.8,0,3.1,0,4.9-1.4.3-2.7.3-4.5.1-1.6-.9-2.7-1.8-2-4,.2-.7.4-.9.8-1.5,1.6-.9,2.8-1.6,4.6-.8.6.4.8.6,1.1,1.2Z"/>
  <path class="st4" d="M60.5,247.8c.3,1.7.4,2.9.6,4.6-1,.4-2.1.4-3.5.4-.4-1.4-.4-2.7-.3-4.5.9-1.4,1.9-1.6,3.3-.5Z"/>
  <path class="st98" d="M74.6,238.8c.3.4.3.7.3.9,0,1.3,0,2.4,0,3.9-.1,1.4-.3,2.5-.6,3.9-.7,1.6-1.6,1.7-3,.9-1.7-.3-3.1-.3-4.9-.2-.4,0-.5,0-.5,0-2.3-2.2-3-4.3.3-6.1,1.6-.9,2.1-2.8,4-4.1,1.7-.3,3-.4,4.3,1Z"/>
  <path class="st100" d="M71,248.5c.9-.4,1.7-.5,2.9-.6.3,1.4.3,2.9.1,4.7-2.3-.1-3-1.7-3-4.1Z"/>
  <path class="st35" d="M43.5,6.6c.4,1.7.4,3.1.3,5.3-1.5,2-2.8,2.1-4.3.5-.3-.3-.6-.4-.7-.4,0-1.4.1-2.8.3-4.6,1.2-1.7,2.5-2.4,4.5-.8Z"/>
  <path class="st126" d="M43.8,6.5c-1.4.4-2.7.4-4.4.4-.4-2.2.4-3.7,3.2-4.1.5,0,.7,0,1.1,0,.2,1.1.2,2.1.2,3.6Z"/>
  <path class="st60" d="M133.6,65.4c0-.4.1-.8.2-1,.9-.2,1.7-.2,2.8-.2.4.4.5.9.6,1.6,0,4-.1,7.6-.2,11.7-.7.5-1.5.5-2.6.5-.4-.8-.4-1.6-.5-2.8,0-1.8-.1-3.1-.3-4.9,0-1.8,0-3.1,0-4.9Z"/>
  <path class="st35" d="M133.4,101.9c.4.8.5,1.5.4,3.1-1.5,1.9-2.8,2.1-4.3.4-.3-.3-.6-.4-.8-.4,0-.8,0-1.5.2-2.6,1.4-.4,2.8-.4,4.5-.4Z"/>
  <path class="st118" d="M57.3,41.9c-.8,2.9,1.3,7.5-4.5,8-1.6-.1-2.1-.9-2.5-2.5-.3-2.3-.5-4,.6-6.1,2.1-1,3.8-1.7,5.8.3.4.4.5.3.6.3Z"/>
  <path class="st89" d="M51.6,46.7c.5,1.1.6,1.8.7,2.9,0,2.1-.2,3.8-.3,5.9-1.3,1.9-2.8,2.5-5.1,1.2-2.3-3.5-.7-6.5.1-10.1,1.6-1.5,2.9-1.5,4.6,0Z"/>
  <path class="st60" d="M46.7,56.1c1.8-.1,3.1-.1,4.9,0,.4,1.4.5,2.8.5,4.6-.5,1.8-1.5,2.3-3.4,2.1-.8-.1-1.1-.2-1.8-.5-1.8-1.4-1-3-1.3-4.8.3-.6.5-.9,1.1-1.3Z"/>
  <path class="st54" d="M56.5,65c.4,2.3.4,4.5-3.1,4.8-.6,0-.9-.1-1.5-.3-.6-.3-.8-.4-1.2-1-.8-1.5-.3-2.5.6-3.7.6-.3.9-.3,1.5,0,1.3.2,2.3.2,3.7.2Z"/>
  <path class="st125" d="M53.1,64.7c0,.3-.4.4-.6.4-1.3.9-2.3,1.7-4.2.7-1.2-1.4-1.9-2.6-.7-4.3,1.4-.4,2.6-.4,4.1-.4.7,1.1,1.1,2.2,1.5,3.7Z"/>
  <path class="st103" d="M52.4,83.3c-.4-1.7-.4-3.1-.4-4.9-.8-1.2-.9-2-.1-3.3,2.3,0,4.3,0,5.2,2.7.1,1.7,0,3.1.1,4.9,0,.4,0,.4,0,.4-1.3,1.3-2.7,2-4.7.3Z"/>
  <path class="st17" d="M52.2,74.4c0,1.2-.1,2-.2,3.2-1.1.4-2.2.4-3.6.4-.4-2.7-.4-5.4-.4-8.5.9-1.8,2-1.9,3.7-.8.4.3.5.3.6.3s0,.5,0,.7c0,1.6-.1,3-.2,4.7Z"/>
  <path class="st125" d="M52.6,69.9c-.2,0-.2-.4-.2-.6.2,0,.3.1.6.5.1.1-.2.2-.4.2Z"/>
  <path class="st83" d="M147.1,217.1c0,6.1,0,12-.1,18.4-1.3,2.1-2.9,2.6-5.2,1.7-3.4-6.6-2.5-13-.8-19.3.7-2.6,2.5-3.3,5.4-1.5.4.4.7.6.8.7Z"/>
  <path class="st30" d="M141.8,235.6c1.7.3,3,.4,4.7.4.4.7.4,1.5.4,2.6-3,1.3-6.1.8-9.5,1-.4,0-.4-.3-.4-.4-.8-.9-1.2-1.8-.6-3.4,1.8-1.6,3.4-2,5.4-.2Z"/>
  <path class="st83" d="M191,194.6c-2,.5-4.1.6-6.5.7-2.2,0-3.9-.1-6.1-.3-2-1.3-2.5-2.8-1.5-5.1.8-1,1.4-1.2,2.7-1.3,4,.6,7.6-.6,11.3,1.4.2,1.8.2,3,.2,4.7Z"/>
  <path class="st119" d="M173.4,194.5c-2.6.5-4.8.7-7.4.8-1.7.7-3,1.6-5.2.7-2.1-1.9-2-3.7-.7-6,4.3-3.5,8.6-2,13.2-1.2,1.3,2,1.9,3.7,0,5.7Z"/>
  <path class="st88" d="M173.4,195c-.4-1.4-.4-2.7-.4-4.5,1.2-2.3,2.8-2.2,4.8-.7.2,1.8.2,3.1.1,4.7-1.4.4-2.8.5-4.6.5Z"/>
  <path class="st83" d="M160.7,195.4c1.5-.2,2.7-.2,4.4-.2.2,1,0,1.9-.3,3.1-1.1.4-2.1.4-3.5.4-1.5-.9-1.6-1.9-.6-3.4Z"/>
  <path class="st55" d="M210.3,163c-.6,4.4-.4,8.8-.4,13.7-1.3,2-2.8,2.4-5,1.3-2.5-2.9-2.4-5.9-2.1-9.5,0-2.3.3-4,1.2-6,2-1.7,3.6-1.6,5.4.3.4.4.6.4.8.3Z"/>
  <path class="st15" d="M204.9,177c1.7,0,2.9,0,4.6.1.5,1.4.6,2.7.8,4.5,0,2.8-.2,5.1-.3,7.9-1.4.5-2.7.6-4.4.8-.4,0-.3-.2-.4-.4-.6-.7-1.4-1.1-1.7-2.4-.2-1.8-.6-3.1-.4-4.9.1-1.7-.3-3.1.8-4.7.4-.5.6-.7,1.2-1Z"/>
  <path class="st89" d="M137.6,52c-.4-1.4-.4-2.7-.4-4.5,0-.4.1-.4.2-.4.9-1.5,2-2.4,4.2-1.5.7.3,1,.5,1.4,1.1.8,1.9,1.2,3.4-.6,5-.3.4-.4.3-.5.3-1.4,0-2.7,0-4.4,0Z"/>
  <path class="st95" d="M110.2,128.4c1.4-.6,2.8-.9,4.6-1.3,1.2-2.1,3.7-1.2,4.9-3,.2-.3,0-.3.1-.4,1,0,1.9-.1,3.3-.1.7.1,1,.2,1.7.6,2.5,4.5,1.9,8.7.3,13.3-1.3,1.6-2.8,1.5-4.7,1.5-5,0-9.5,0-14.4-.6-1.5-1.9-2.2-3.5-.4-5.6.6-.4.7-.5,1.1-.7,2.5,0,3.4-1.3,3.4-3.7Z"/>
  <path class="st95" d="M123.6,123.7c0-2.2.4-4.4.5-6.6.2-2.3,1.4-3.2,4-3.2.7,0,1,.2,1.7.6,2.1,3.5,2,6.7.2,10.3-2.1.9-3.8,1.6-5.6-.5-.4-.4-.6-.6-.8-.7Z"/>
  <path class="st106" d="M128.6,113.9c0-1.1,0-2.2.2-3.7,0-.4,0-.4.1-.4,1.2-1.1,2.3-2.3,4.5-1.2.7.3,1,.5,1.5,1.1.6,1.7.4,3-.3,4.6-1.8,1.4-3.4,1.8-5.2,0-.3-.4-.7-.4-.9-.4Z"/>
  <path class="st109" d="M47.8,16.6c0,1.2,0,2,0,3.2,0,1.7,0,3,0,4.8-.1.7-.3.9-.7,1.4-1.2.6-2.1.5-3.3,0-.6-.5-.8-.7-1.1-1.4-1.3-4.4-2-8.2.9-12.3.3-.3.3-.4.4-.4.8,0,1.6,0,2.7,0,.6,1.4.8,2.8,1.1,4.6Z"/>
  <path class="st21" d="M160.9,119.3c-.1-1.8,0-3.1,0-4.7,1-.5,1.9-.6,3.2-.8,1.6-.8,2.8-1.7,4.8-.7,1.6,1.8,2.1,3.4,1,5.8-1.6,1.8-3.2,2.3-5.6,2.2-1.6,0-2.6-.3-3.6-1.7Z"/>
  <path class="st97" d="M169.2,113.8c-1.5,0-2.6,0-4.2-.1-.4-.5-.5-1.4-.3-1.5,3.1-1.7,4.8-4.9,8.3-7,1.7,1,2.4,2.2,1.6,4-.6,2.3-2.3,3-4.1,4.1-.5.4-.7.5-1.3.6Z"/>
  <path class="st97" d="M173.3,101.4c1.3-.4,2.6-.5,4.2-.5.7.1.9.3,1.5.8.6,1.3.5,2.3-.2,3.5-1.7,1.3-3.1,1.9-5,.4-.4-.3-.6-.5-.7-.6,0-1.1,0-2.2.3-3.6Z"/>
  <path class="st47" d="M200.2,87.9c0,1.1-.1,2.1-.2,3.6-2.2,2-.7,5.4-3.8,6.9-1.6.5-2.9.5-4.5,0-2-1.2-1.8-2.7-1.4-4.7.2-.7.3-1,.5-1.6,2.1-1.5,3.8-2.8,5.2-5,1.5-.6,2.6-.5,3.7.8.3.3.4.3.5.2Z"/>
  <path class="st118" d="M195.7,97.2c1.2-2.1,1.3-4.4,3.9-5.2.4,1.3.5,2.8.6,4.7,0,1.7-.2,3-.4,4.7-.8.4-1.6.4-2.7.4-3.4-.5-3.2-2.2-1.4-4.6Z"/>
  <path class="st26" d="M186.4,113.6c.3,3.4.3,6.5.5,10,4.1,2.9,6.1,7.3,10.4,10,.7,1.6.2,2.7-.9,4.1-7.4,2.2-14.5,1.2-22.1.8-4.2-3.5-4.2-4.9-1-8.5,2.9-3.3,7.9-5.1,7.6-11.1,0-2.1.4-3.5,1.4-5.3,1.5-1.2,2.7-1.3,4.2,0Z"/>
  <path class="st22" d="M187,114c-1.3,0-2.2,0-3.9,0-1.6-1-2.1-1.9-1.5-3.6,1.7-2.2,3.1-4,3.5-6.6.5-3.2,3.8-4.7,6.4-6.9,1.5,0,2.6,0,4.1,0,.6,1.4.7,2.8,1,4.6,0,1.1,0,1.8-.2,2.9-2.7.7-4.9,1.6-4.5,5.3-.2,1.4-.4,2.5-.7,3.9-1.3.4-2.6.4-4.2.5Z"/>
  <path class="st118" d="M196.2,132.6c-5.2-.3-6.7-4.6-9.2-8.2,1.2-.4,2.4-.4,3.9-.4.9,2.1,1.1,4.6,4.7,3.9.4,1.1.4,2.2.4,3.7.1.5.3.7.2,1Z"/>
  <path class="st87" d="M232,136.6c-1.4.5-2.7.7-4.4,1-.6,0-.9,0-1.4-.4-.4-1.4-.8-2.5-.5-4,.5-3.8,5.1-3.6,6.1-7.1,1.5-.6,2.6-.7,3.7.7.3.3.5.3.5.3-.2,3.5-3.6,5.6-4,9.5Z"/>
  <path class="st2" d="M204.5,186.5c.4,1.1.5,1.8.5,2.9-1.4.5-2.8.7-4.7.9-3.1,0-5.7,0-8.8,0-3.8,0-7.2-.1-11.1-.3-1.2-.8-1.7-1.7-1.4-3.3,1.3-1.6,2.7-2,4.2-2.1,5.8-.3,11.6-.2,17.3,0,1.3,0,2.5.5,3.9,1.9Z"/>
  <path class="st86" d="M80.1,225.7c-.4.3-.5.4-.5.4-1.3,0-2.5,0-4.6-.3-1.7-1.2-2-2.3-1.9-4.1,0-2,0-3.6,1.1-5.4,2-1.1,3.6-1.6,5.7-.4,1.8,1.5,1.8,3.2,2.1,5.4,0,1.9-.2,3.2-1.8,4.4Z"/>
  <path class="st121" d="M74.4,230.7c.4,1.7.4,3.1.5,5,0,.4,0,.4,0,.4-1.1,1.2-2.4,1.5-4.4.8-1.9-1.9-1.7-3.6,0-5.5.4-.4.4-.4.4-.4.9-.9,1.9-1.4,3.4-.3Z"/>
  <path class="st79" d="M74.7,230.6c-1,.4-2,.4-3.4.4-.4-1.4-.5-2.9-.6-4.7,0-.4.1-.4.2-.4.9-.8,1.9-1.3,3.4-.4.3.3.5.4.6.5,0,1.4,0,2.8-.1,4.6Z"/>
  <path class="st123" d="M105.6,132.4c.4,1.3.4,2.6.4,4.2-3,3.9-7,1.9-10.6,2.2-.5,0-.8.2-1.8.2-2.2-.2-4,0-6-1.3-1.6-1.9-1.8-3.6-.6-5.8,1.9-1.6,3.5-2.2,5.6-.3,1.8.4,3.2.4,5,.4,2.8,0,5.2.2,8,.4Z"/>
  <path class="st115" d="M196,133.2c0-.4,0-.8,0-1,2.7-.1,5.4,0,8.5,0,1.8,0,3.2,0,5,0,2.6-2.5,5.3-2.8,8.6-1.2,1.4,1.8,2.2,3.4,1.1,5.7-1,1.8-2.2,2.2-4.1,2.4-1.8,0-3.2.2-5,0-4.6-.3-8.8.6-13.5-1.3-.7-1.8-.7-2.9-.7-4.5Z"/>
  <path class="st98" d="M80.1,226c-.4-1-.3-2-.2-3.4.9-1.5,1.9-2,3.6-.9.3.3.6.3.7.3,0,2.4-.7,4.3-4.1,4Z"/>
  <path class="st81" d="M150.9,38.4c-1,.5-2,.5-3.4.6-2.5-.9-2.6-2.5-1.5-4.8,1.4-1.5,2.7-1.8,4.5-.5.4.4.6.3.7.3,0,1.4-.1,2.7-.3,4.5Z"/>
  <path class="st75" d="M156.4,198.6c-.4,1.6-.5,2.9-.6,4.6-1.3.5-2.6.6-4.7.6-1.4-.6-2.1-1.4-2-2.1.1-5.9-3.4-9.2-8.3-12-1.3-2.8-1-5.3,0-8.1,1.5-1.9,3.1-1.7,5.3-1.6,1.8,0,3.1,0,4.6.8,1.7,1.1,1.9,2.6,2.8,4.3-.2,3.1,2.6,3.5,3.9,5.4,1,3,1.6,5.6-1,8.2Z"/>
  <path class="st75" d="M150.6,208.5c-.8.4-1.4.4-2.4.4-3-3.8-2.6-4.9,2.3-5.3.4.4.5.4.5.4,0,1.4-.2,2.7-.4,4.5Z"/>
  <path class="st18" d="M236.2,97.5c1.4-.4,2.7-.5,4.4-.5.4,2.4.4,4.8.5,7.6,0,.4,0,.4,0,.4-1.3,1.2-2.6,2-4.7.3-.4-.3-.5-.4-.5-.5,0-2.3.2-4.6.3-7.4Z"/>
  <path class="st118" d="M236,119c0,1.4,0,2.8-.2,4.6-.9,1.6-2,2-3.8,1.3-1.4-1.5-2.2-2.8-1.6-5,.3-.7.4-1,.9-1.6,1.5-.9,2.7-1.1,4,.3.3.4.5.4.6.4Z"/>
  <path class="st22" d="M231.4,124.5c1.5-.6,2.5-.6,3.9-.5.4.8.4,1.6.4,2.7-1,.4-2,.4-3.7.2-1-.7-1.2-1.2-.7-2.4Z"/>
  <path class="st94" d="M93,131.6c-1.4.3-2.8.3-4.9.3-1.6-1.7-3.1-2.4-5.1-3.1-.3-.5-.4-.8-.5-1.4,0-1.2-.2-1.9.3-3,.4-.5.6-.7,1.2-1,4-.4,4.5,4.7,8.5,4.3.4,1.3.5,2.4.6,3.9Z"/>
  <path class="st97" d="M78.9,118.9c1.8,0,3.1,0,4.8,0,.5,1.3.6,2.5.7,4.1,0,.4-.1.7-.2.9-1,1-1.9,1.9-3.8,1.5-.8,0-1.1,0-1.7-.4-1.1-1.6-1.9-2.9-1-4.9.4-.6.6-.8,1.3-1.2Z"/>
  <path class="st111" d="M236,105.5c1.4-.4,2.8-.5,4.6-.4.4,1.4.4,2.8.4,4.6-1.1,1.4-.9,2.6-.4,4.1-1.3.3-2.6.3-4.2.3-.4-2.7-.4-5.4-.4-8.5Z"/>
  <path class="st81" d="M235.7,118.6c-1,.4-2,.4-3.3.4-2.3-1.1-2.4-2.6-.8-4.7.3-.4.3-.4.3-.4,1.1,0,2.1,0,3.6,0,.4,1.4.3,2.8.2,4.6Z"/>
  <path class="st37" d="M137.5,236c0,1.1-.2,1.7-.4,2.7-1.9.5-3.7.7-5.8,1-.7,0-1.1,0-1.8,0-.4-.9-.6-1.9-.8-3.1,0-.6,0-.9.4-1.4,1.4-1,2.6-1.4,4.4-1.1,1.2,0,2,.1,3,.7.5.4.7.6.9,1.2Z"/>
  <path class="st109" d="M146.3,33.2c.7,2.1.7,3.5.7,5.3,0,1.2,0,1.9-.1,3-1.3,2.1-2.9,2.4-5.3,1.5-2.6-2.8-1.9-5.7-1.2-9,1.8-1.5,3.3-2.4,6-.9Z"/>
  <path class="st60" d="M141.6,42.3c1.8-.3,3.1-.3,4.9-.4.5,1.5.5,3,.7,4.9,0,.4,0,.4,0,.4-1.3,1-2.5,1.9-4.4.2-.3-.4-.5-.4-.7-.4-1.5-1.3-2.2-2.7-.5-4.7Z"/>
  <path class="st97" d="M137.2,28.8c0-1,0-2-.2-3.5.2-1.8.5-3.3.7-5.1,1.1-.3,2.2-.3,3.6-.2.5,1.4.6,2.8.7,4.5,1,1.4,1.6,2.6.7,4.5-1.8,1.5-3.3,2-5.1,0-.3-.4-.4-.4-.5-.4Z"/>
  <path class="st18" d="M192.6,83.7c-.5-2-.5-3.3-.5-4.9,1.4-.4,2.7-.4,4.4-.4,2,1,2.1,2.5,1.6,4.5-.3.7-.5.9-1.1,1.3-1.6.3-2.8.9-4.5-.5Z"/>
  <path class="st60" d="M197.3,83.2c-.3-1.6-.3-2.8-.4-4.5.7-.4,1.5-.5,2.6-.5.5,1.3.6,2.6.8,4.2,0,.4-.2.5-.3.5-.7.8-1.5.9-2.6.2Z"/>
  <path class="st97" d="M74.3,114.6c1.7-.7,2.8-.6,4.2-.6.5,1.3.7,2.7.8,4.4,0,.4-.1.5-.2.6-4.1,1.8-4.8,1.3-4.8-4.4Z"/>
  <path class="st3" d="M219.1,127.2c0-1.1-.1-1.8-.1-2.8,1.3-.5,2.6-.6,4.3-.8.6,0,.9,0,1.4.4.7,1,.6,1.7.6,2.9-.2.6-.4.8-.8,1.3-1.6.5-2.8,1.3-4.4.3-.5-.4-.7-.6-1-1.1Z"/>
  <path class="st109" d="M223.9,119.4c.8-.4,1.6-.5,3.1-.4,1.8,1.3,2.3,2.6,1.4,4.5-.3.7-.4.9-1,1.4-1.3.5-2.1.4-3.1-.6-.3-.3-.5-.6-.6-.7,0-1.4,0-2.7,0-4.3Z"/>
  <path class="st47" d="M57.1,41.6c-1.3.4-2.6.4-4.3.4-1.4,0-2-.6-2.5-1.9-.2-1.9-.5-3.3.4-5,.5-.5.7-.7,1.3-1,1.7,0,2.9,0,4.5,0,.5,1.4.7,2.7.9,4.5,0,1.2-.1,2-.3,3.1Z"/>
  <path class="st14" d="M46.6,25.5c.4-.4.8-.5,1-.5,1.3,0,2.3,0,3.7,0,.5,1,.7,2.1.9,3.5,0,1.8,0,3.2,0,5.1,0,.4-.1.4-.2.4-1.1,1.1-2.3,1.8-4.3,1.1-2.5-3-1.8-6.1-1.2-9.6Z"/>
  <path class="st37" d="M88,216.8c-1,.5-1.9.5-3.2.6-.6,0-.9,0-1.6-.4-1.5-2.1-1.1-3.7.6-5.4,1.1-.8,1.9-1,3.3-.7.6.4.8.6,1.1,1.2,0,1.7,0,3-.2,4.7Z"/>
  <path class="st37" d="M92.8,208.7c.2,1.2.2,1.9.2,3-1.3.5-2.6.6-4.3.8-.4,0-.6-.3-.7-.4-.9-.9-1.2-1.9-.6-3.4,1.9-1.4,3.5-2,5.3,0Z"/>
  <path class="st19" d="M150.9,203.5c-2.2,1-2.9,2.6-3,5-1,2.6-1.1,5-1.2,7.9-2.9.8-3.9,2.7-4.1,5.2-.2,4.5-.3,8.9-.5,13.9-1.3.6-2.6.7-4.2.9-.4,0-.7-.2-.8-.3-2.8-4.2-1.2-8.8-1.6-13.6.2-3.5,0-6.4.2-9.8,3.4-2.6,3.9-5.9,3.8-9.6,0-3.9-.8-7.9,1.1-12,.4-.6.6-.8,1.2-1.1,8.9.6,9.2,1.1,9,13.6Z"/>
  <path class="st80" d="M124.1,222c-1.3,0-2.2,0-3.5,0-.5-1.3-.6-2.6-.8-4.3-1-1.6-2.3-2.8-1.3-5.1.3-.7.5-1,1-1.5,1.6-.7,2.8-.9,4.5,0,1.4,1.4,2,2.8,2,4.8-.1,1.9.3,3.4-.6,5.1-.4.6-.6.8-1.2,1.1Z"/>
  <path class="st86" d="M119.8,212c.1,1.8.1,3.1.1,4.9-1.3.3-2.6.2-4.3,0-.5-1.3-.6-2.6-.8-4.2,0-.7,0-.9.5-1.6,1.9-1.2,3.2-1.2,4.5.8Z"/>
  <path class="st86" d="M110.3,212c-.4-.9-.3-1.6-.3-2.7,3.7-3.3,4.8-2.9,5.4,2.1-.4.5-.6.7-.7.8-1.4,0-2.7,0-4.4-.2Z"/>
  <path class="st106" d="M178.2,92.5c1.4-.5,2.7-.6,4.4-.7,2.5,1,2.6,2.6,1.6,5-1.7,1.8-3.3,2.4-5.4.6-.3-.4-.7-.5-.8-.5,0-1.3.1-2.7.4-4.4Z"/>
  <path class="st123" d="M119.5,123.8c0,2.3-1.5,3.1-3.9,3.2-.4-.7-.4-1.4-.4-2.5,1.3-.5,2.6-.6,4.3-.7Z"/>
  <path class="st80" d="M93.4,209.1c-1.8,0-3.2,0-5.4-.2-2.1-1.7-2-3.2-.8-5.2,1.7-1.4,3.2-1.9,5.4-1.9,5.2-.2,9.9-1,14.9.9,1,2,1.7,3.6-.2,5.5-.4.3-.4.6-.4.7-2.7,0-5.4,0-8.5,0-1.8,0-3.2,0-5,.1Z"/>
  <path class="st97" d="M60.7,92c1.7,0,3,0,4.7,0,.5,1.4.6,2.8.8,4.6,0,.4-.2.3-.3.3-1,1.2-1.9,2.3-4.1,1.6-.7-.2-.9-.4-1.5-.8-1-1.6-1.5-2.8-.8-4.7.4-.6.6-.8,1.2-1.1Z"/>
  <path class="st58" d="M160.3,118.8c1.2,0,2,0,3.3.2,2.3,3.8,1.9,4.9-2.1,6-3.4,1-6.9.6-10.9,0-1.9-1.9-1.8-3.5,0-5.5.4-.4.3-.6.3-.7,1.4,0,2.7,0,4.5,0,1.8,0,3.1,0,4.9,0Z"/>
  <path class="st81" d="M196.8,83c1,0,1.7,0,2.7,0,.4,1.4.5,2.8.5,4.6-1,.4-2,.5-3.9.3-2-1.5-2.3-2.8-.5-4.5.5-.4.7-.4,1.1-.5Z"/>
  <path class="st49" d="M150.6,119c.4,1.4.4,2.8.4,4.6.6,1.1,1.3,1.7,1.4,3.2-2.6,3.4-3.4,7.1-4.9,10.9-1.7,1.2-3.2,1.1-5.2,1.3-2.1,0-3.7,0-5.5-1.1-2.2-2.7-2.7-5.5-1.9-8.2,1.4-4.7,1-9.4.8-14.5.4-.7.6-.9,1.2-1.3,1.7,0,2.9,0,4.6.2.5,2.9,1.2,5.3,5.3,4.6,1.4,0,2.5.1,3.9.3Z"/>
  <path class="st48" d="M142.3,29.2c0-1.4,0-2.4,0-3.7,1.2-.3,2.5-.3,4.2-.2.5,1,.7,2,.7,3.8-1.1,1.6-2.2,2.3-3.9,1.4-.5-.4-.7-.6-.9-1.2Z"/>
  <path class="st3" d="M134,105c.7,0,1.5,0,2.6,0,.5,1.4.7,2.7.9,4.5,0,.4-.3.4-.5.5-.7.7-1.4.9-2.6.5-.3-.2-.4-.4-.4-.5-1.3-1.3-2-2.6-.3-4.5.4-.3.3-.4.3-.5Z"/>
  <path class="st97" d="M133.6,105.2c.4,1.3.4,2.6.3,4.3-1.4.4-2.8.4-4.5.4-.4-1.4-.4-2.7-.3-4.5,1.4-.4,2.8-.3,4.5-.3Z"/>
  <path class="st105" d="M60.7,97.2c1.8-.2,3.1-.2,4.7-.3.5,1.4.6,2.8.5,5.1-1.6,1.7-2.9,1.7-4.6.3-.3-.3-.3-.2-.4-.2-1.4-1.4-2.2-2.8-.3-4.9Z"/>
  <path class="st109" d="M70.4,102c.5.8.6,1.5.5,3-1.3,1.8-2.6,2.2-4.5,1.3-.6-.3-.9-.5-1.3-1-.5-1.3-.3-2.1.7-3.1.3-.3.4-.3.4-.3,1.3,0,2.6,0,4.2,0Z"/>
  <path class="st14" d="M218.7,132.5c-2.9-.1-5.4-.2-8.3-.4-.4-1.2-.4-2.4-.3-3.9,1.1-.5,2.1-.7,3.5-1.1,1.8-.1,3.2-.2,5-.2.4,0,.4.1.4.2,1.3,1.1,2.3,2.2,1.2,4.4-.5.6-.7.8-1.4.9Z"/>
  <path class="st97" d="M183.2,83.6c1.1-.5,2.1-.5,3.5-.7.4,0,.4.2.4.3,1.6,1.3,2.4,2.7,1.3,5.1-1.6,1.2-2.9,1.4-4.6.2-.4-.4-.6-.5-.8-.5,0-1.4,0-2.7.3-4.4Z"/>
  <path class="st48" d="M186.6,88.5c.4-1.7.4-3,.4-4.8,1.4-.5,2.7-.6,4.5-.8.4,0,.3.1.3.2,1.5.8,2.4,2,2.1,4.3,0,1.7-.2,2.9-1.7,4-.4.3-.4.3-.4.3-1.2,1.7-2.7,2.2-5.1,1.1-1.5-1.5-1.5-2.8-.2-4.5Z"/>
  <path class="st49" d="M134,110.6c.7-.4,1.4-.5,2.4-.6.5,1,.7,2,.8,3.3,0,.4-.2.5-.2.6-.6.5-1,1.1-2.1,1.1-.5-.2-.7-.3-1-.8,0-1.3,0-2.3,0-3.6Z"/>
  <path class="st14" d="M150.9,33.6c-1,.4-2,.4-3.4.4-.4,0-.4,0-.4,0-1.4-1.2-2.1-2.6-.4-4.6.3-.4.4-.4.5-.3,1,0,1.9,0,3.2,0,.4,1.4.5,2.8.5,4.6Z"/>
  <path class="st54" d="M227,140.7c-.5.4-1,.4-2.1.6-1,0-1.2,0-1.8-.3-.8-1.3-1.1-2.2-.5-3.7.3-.6.4-.8,1-1.3,1.2-.4,2-.3,3,.6.3.3.5.7.6,1,0,1.1,0,1.9-.1,3.1Z"/>
  <path class="st8" d="M156.5,198.9c-.5-2.6-.5-5.3-.4-8.8,1.3-1.9,2.6-1.5,4.5-.8.5,2,.5,3.5.5,5.4,0,1.4,0,2.3-.2,3.6,0,.4-.4.6-.5.7-1.3,0-2.4,0-3.9,0Z"/>
  <path class="st87" d="M224.2,141.8c-.4,1.2-.5,2.3-.7,3.6-1.3.4-2.5.5-4.5.5-1.8-1.2-2.3-2.5-1.5-4.4.3-.7.4-.9.9-1.4,1.7-.7,3.1-1.3,4.6.5.2.4.7.4.9.5.3.2.4.4.3.8Z"/>
  <path class="st87" d="M218.7,150.4c-1.4.5-2.7.6-4.5.6-2-1.3-2.3-2.8-1.2-5,1.7-1.5,3.2-2.2,5.3-.7.4.3.6.5.7.6,0,1.4-.1,2.7-.3,4.4Z"/>
  <path class="st125" d="M142.4,47.5c1.4-.4,2.6-.3,4.3-.3.4,1.4.3,2.7.2,4.4-1.4.4-2.7.5-4.4.5-.3-1.4-.3-2.8-.2-4.6Z"/>
  <path class="st102" d="M214.1,145.8c0,1.7,0,3-.2,4.7-.3,1.1-.5,1.9-.7,2.9-.4,1.5-.9,2.6-2.5,3.4-5.9,5.5-12.9,4.4-20,4.6-4.5-1-8.8.2-13.2-1.4-1-1.6-1.5-2.8-.8-4.7,3.9-4,8.5-1.6,12.7-2.2,2.8-.5,5.9.6,8.8-1.7,1.9-2.2,4.2-2.7,6.5-2.9,1.9-.2,3.6-.6,4.5-3,1.2-.9,2.2-1.3,3.8-.8.6.4.8.6,1.1,1.2Z"/>
  <path class="st87" d="M209.7,155.4c1.2-.7,2-1,3.2-1.4.5,0,.8.3,1.1.8,0,1.6-.2,3-.4,4.9-1,.5-1.8.5-3.1.6-2.4-1.1-2.5-2.7-.8-4.8Z"/>
  <path class="st3" d="M71,105.1c.9,0,1.8.1,3,.2.4,1.3.6,2.6.7,4.3,0,.4-.2.3-.3.3-.7,1.3-1.6,1.7-3.3,1.3-.6-.3-.9-.5-1.3-1.1-.8-1.9-.9-3.3.8-4.7.3-.3.3-.3.3-.3Z"/>
  <path class="st35" d="M57,92c0-1.1,0-2.1.1-3.6,1.1-.4,2.1-.3,3.4-.3.4,1,.4,2,.5,3.4,0,.4-.1.4-.2.5-.9,1.1-2,1.4-3.5.3-.3-.3-.4-.3-.4-.3Z"/>
  <path class="st53" d="M123.8,226.6c0-1.5,0-2.6,0-4.1,0-.4.1-.4.2-.4,1.4-1.6,2.9-2.1,5.3-.8,2.4,3.3,2.3,6.5,1,10.1-2.1,1.2-3.8,1.9-5.9,0-.4-.4-.5-.3-.5-.3,0-1.3,0-2.7,0-4.5Z"/>
  <path class="st117" d="M52,83.4c1.4-.4,2.8-.4,4.6-.4.4,1.4.4,2.7.4,4.5-1.3.5-2.5.5-4.1.6-.5-1.4-.7-2.8-.8-4.7Z"/>
  <path class="st21" d="M178.2,97.4c1.4-.4,2.7-.4,4.7-.2,1.8,1.2,1.4,2.4,1.5,4-.2.7-.4,1-.9,1.5-1.8.7-3.3.9-5.1-.3-.4-.5-.4-.7-.6-1.2,0-1.4,0-2.4.3-3.9Z"/>
  <path class="st49" d="M186.6,88.2c.4,1.1.4,2.1.4,3.6,1.9,2,2.7,3.8.4,6.3-1.6.4-2.6.5-3.9-.6-.4-.4-.5-.3-.5-.3,0-1.4,0-2.9,0-4.8,0-1.4.1-2.4.3-3.7,1-.4,2-.3,3.4-.3Z"/>
  <path class="st67" d="M70.8,236.3c1.3-.3,2.4-.3,3.7-.3.4.8.4,1.6.4,2.8-1,.3-2.1.3-3.5.2-1.2-.6-1.3-1.5-.6-2.7Z"/>
  <path class="st37" d="M83.9,221.6c-1.1.5-2.1.5-3.6.6-.5-1.5-.6-2.9-.7-4.9,0-.7.2-.9.6-1.4,1.4-.7,2.4-.4,3.4.7.3.3.5.5.7.6,0,1.4-.2,2.7-.5,4.3Z"/>
  <path class="st86" d="M124,231.4c1.4-.4,2.7-.4,4.4-.3,2.4.9,2.5,2.3,1.2,4.5-.3.4-.6.5-.7.6-1.4,0-2.7,0-4.4-.2-.5-1.4-.5-2.8-.6-4.6Z"/>
  <path class="st89" d="M231.6,113.9c.4,1.4.4,2.9.4,4.7,0,.4,0,.4,0,.4-1.2,1.3-2.5,2.1-4.6.5-.4-.3-.4-.5-.4-.6,0-1.4.2-2.7.3-4.4,1.3-.5,2.6-.6,4.3-.6Z"/>
  <path class="st105" d="M70.5,110.4c1.3-.3,2.3-.3,3.6-.4.5,1,.7,2,.9,3.5,0,.4-.1.5-.2.6-.8,1.1-1.7,1.7-3.4,1.2-.7-.3-.9-.5-1.3-1-.5-1.5-.8-2.7.6-3.9Z"/>
  <path class="st105" d="M137.4,29.2c1.4-.4,2.7-.4,4.4-.4.4,0,.5,0,.6,0,.9,1.3,1.9,2.6.3,4.6-.4,2.8-.5,5.2-.6,8.1,0,1.8,0,3.2,0,5-1.3.4-2.6.5-4.2.5-.5-1.4-.6-2.8-.7-4.7,0-1.2,0-1.9,0-3.1,0-1.8,0-3.2,0-5,0-1.9.1-3.3.2-5.2Z"/>
  <path class="st17" d="M224.1,141.9c-.2,0-.2-.2-.1-.7,0-.2.5-.1.7,0,0,.3-.2.4-.6.7Z"/>
  <path class="st34" d="M209.7,155c.4,1.4.4,2.9.5,4.8,0,1.2,0,1.9-.2,2.9-1.4.3-2.8.3-4.5.3-4.7,3.8-9.6,2.6-14.9,1.2-.9-1.4-1-2.5,0-3.9,5.9-.5,11.7.3,15.9-4.6.5-.6,1.8-.5,3.2-.7Z"/>
  <path class="st53" d="M107.3,208.6c-.4-1.3-.4-2.5-.4-4.1,0-1.2.2-2,1-2.4,3.3-1.7,4.5-4.5,4.7-8,.1-1.8.7-3.5,2.3-5.1,2-1,3.5-.8,5.4.4,2.2,2.9,1.4,5.9,1.6,9.2-.3,4.5,1,8.7-1.5,13-.4.4-.5.7-.5.8-1.4,0-2.7-.1-4.4-.4-.9-2.4-2.7-2.9-5.1-3-1.1-.1-1.9-.2-3.1-.4Z"/>
  <path class="st124" d="M39.3,61.3c-.4-1.7-.5-3.2-.6-5,0-.4.1-.4.2-.4,1.2-1,2.2-2.2,4.4-1.4.7.3,1,.4,1.5.9.7,1.8.6,3.3.4,5.2-.2.7-.4,1-.9,1.4-1.9.8-3.4,1.1-4.9-.7Z"/>
  <path class="st44" d="M39,61.4c1.3-.4,2.6-.4,4.4-.4,1.9.8,1.9,1.9.9,3.6-.3.4-.4.4-.4.4-2.3,0-4.5-.2-4.9-3.6Z"/>
  <path class="st9" d="M78.8,151.5c.4-3.5.7-6.5,1-10,2.3-2.9,5-2.9,5.5.4.8,5.1,4.3,6.8,8.5,8.8,1,1.6.9,2.9.2,4.7-2.4,2.3-5.1,1.2-8,1.6-3.2-1.2-8.1.9-7.2-5.5Z"/>
  <path class="st24" d="M93.7,150.5c-5.5,1-9.1,0-9.6-5.8-.2-2-1.3-3.4-3.8-3.6-.6-1.2-.8-2.3-1.1-3.8,0-.6.1-.8.6-1.3,1.3-.6,2.3-1.1,3.8-.7.6.1.9.1,1.5.3,1.8.9.9,3.2,3.1,3.9.5.3.7.5,1.1,1,.3,3.5,4.1,2.4,5.2,5,.4,1.8.9,3.1-.7,5Z"/>
  <path class="st7" d="M78.6,151c1.6,2.1,3.7,2.9,6.1,3.8,2.3,2.4,1.3,4.4-.8,5.3-2.5,1.1-5,3.7-8.6,1.2-.5-.6-.5-.9-.8-1.5-.1-1.6,0-2.9,0-4.6,0-1.4.2-2.5.4-4,1.2-.4,2.2-.4,3.7-.4Z"/>
  <path class="st36" d="M80.3,136.6c-.3.3-.8.3-1,.4-1.3,0-2.4,0-3.9,0-.5-1.4-.7-2.7-.8-4.5,0-1.8.1-3.2.1-4.9,0-.4.2-.4.3-.5.9-1.2,2.1-1.5,3.9-1.3,1.9,1.6,2.3,3.4,2.9,5.7.3,2.1.5,3.6-1.4,5.1Z"/>
  <path class="st10" d="M44.3,55.7c-1.8.3-3.2.3-4.9.3-.5-5.4-.6-10.7-.7-16.5,0-.5.2-.4.3-.4,1.4-1.7,3-2,5.4-1,2.1,2.7,1.3,5.3,1.3,8.4.2,3.4.2,6.2-1.3,9.2Z"/>
  <path class="st103" d="M52.1,68.5c-1.1.4-2.2.4-3.7.5-.7-1.1-1-2.2-1.4-3.6,0-.5.2-.7.5-.8,1.5.1,2.6.2,4.3.4.4,1.1.4,2.1.3,3.6Z"/>
  <path class="st16" d="M47.9,64.3c0,.4-.4.6-.6.7-1,0-1.7,0-2.9,0-.4-1.1-.5-2.1-.5-3.6,0-.4,0-.4.1-.4.7-.6,1.5-.9,2.7-.3.3.3.8.3,1.1.3.2,1,.2,1.9.2,3.2Z"/>
  <path class="st51" d="M61.3,199.4c-1.4-.4-2.5-.4-3.9-.4-1.6,0-2.8,0-4.3-.2-1.1-.9-1.6-1.8-1.2-3.5,2.2-3.1,5.1-2.6,8.4-2.6,6.6.1,12.8-.9,19.2,1.1.9,5.1-1.1,7-7.2,7.5-2.1,0-3.7,0-5.8-.1-2.1,0-3.6,0-5.1-1.7Z"/>
  <path class="st52" d="M52.8,194.7c.1,1.3,0,2.2,0,3.5-1.7.5-3.4.6-5.4.8-1.1,0-1.9,0-3,0-.4,0-.2-.1-.2-.2-1.1-.7-1.8-1.6-1.5-3.4.3-.7.5-.9,1-1.4,2.7-1.2,5-1.5,7.8-.3.7.3.9.5,1.3,1.1Z"/>
  <path class="st85" d="M25.1,204.3c-.1-1.7,0-3,0-4.8,1.4-.5,2.7-.6,4.4-.6,2.3,1.1,2.4,2.6.8,4.6-.4,1.6-.5,2.7-.5,4.4-1,.5-2,.5-3.4.6-.7-1.3-.9-2.5-1.4-4.2Z"/>
  <path class="st120" d="M75.3,216.7c-.5,1.8-.6,3.1-.7,4.9-.8,1.6-1.8,1.6-3.2.7-.4-3-.5-5.7-.6-8.9,0-.6,0-.8.3-1.3,1.2-1.4,2.5-1.9,4.5-1,1.8,2,1.6,3.6-.2,5.6Z"/>
  <path class="st92" d="M70.9,222.2c1.1-.2,2-.2,3.3-.3.4,1,.4,2,.4,3.4-1,.4-2,.5-3.3.6-.4-.8-.5-1.5-.6-2.6,0-.5,0-.7.2-1.1Z"/>
  <path class="st129" d="M44.3,38.7c-1.8.3-3.1.3-4.8.3-1.5-4,1.6-9-3.8-12.1-.4-2.1-.5-4.1-.6-6.4.1-1.3.2-2.2.5-3.4.9-.3,1.7-.2,2.9-.1,2.4,0,2.7,1.4,2.9,2.9.2,1.8.5,3.5,2.2,5.1.2.3.3.3.3.3,2.9,4.2,2.4,8.7.4,13.6Z"/>
  <path class="st5" d="M60.8,248.1c-1,0-1.9,0-3.2-.2-.3-1-.2-2,0-3.3.9-.4,1.8-.5,2.9-.6,1.7.8,1.8,2,.8,3.7-.3.4-.5.4-.5.5Z"/>
  <path class="st7" d="M51.9,186.8c0-1.6,0-2.8,0-4.4,2.3-.6,4.7-.6,5.1-3.8.2-1.7,1.7-1.8,3.4-1.9.6,0,.9.1,1.5.5,1.1,1.5,1.3,2.8.4,4.5-2.2,1.7-3.8,3.4-4.8,6-1.6.8-2.9.8-4.6.3-.5-.4-.7-.6-.9-1.2Z"/>
  <path class="st9" d="M61.1,173.6c1.3-.5,2.6-.6,4.8-.5,1.9,1.7,2.3,3.3.9,4.7-1.5,1.5-3.2,1.4-5.3-.2-.4-.4-.6-.6-.7-.8,0-1.1.1-2,.2-3.2Z"/>
  <path class="st124" d="M66.6,109.5c-2,.6-3.2.5-4.9.5-.4-1.4-.5-2.8-.5-4.7,1.2-1.8,2.5-2.3,4.4-.7.3.3.4.3.4.3,1.1,1.1,2.2,2.2.6,4.5Z"/>
  <path class="st44" d="M61.1,96.9c0,1.4,0,2.9-.1,4.8-.9.4-1.8.3-3.1.3-.5-1.4-.6-2.7-.8-4.5,0-.4.2-.3.3-.3.8-1.3,1.7-1.3,3.2-.5.3.3.4.3.5.3Z"/>
  <path class="st129" d="M66,104.6c-1.3.3-2.6.3-4.4.3-.5-.7-.6-1.5-.6-2.6,1.4-.4,2.8-.4,4.6-.4.4.8.4,1.5.4,2.6Z"/>
  <path class="st129" d="M70.6,114.3c1.4-.2,2.4-.2,3.7-.2.6,2.3.8,4.7,4.4,4.9.4,1.4.4,2.7.4,4.4-.8,1.9-2,1.9-3.7.9-1.4-2-1.2-4.5-4-5.2-.3,0-.3,0-.3,0-1.3-1.3-2.2-2.7-.4-4.7Z"/>
  <path class="st10" d="M74.9,124.4c1.1-.4,2.2-.5,3.7-.6.4,0,.7,0,.9.1,1,.6,1.4,1.3,1.1,2.7-.5.5-.8.6-1.5.6-1.4-.2-2.4-.2-3.7-.2-.4-.8-.4-1.5-.5-2.7Z"/>
  <path class="st92" d="M30.5,203.9c-.4-1.4-.4-2.7-.5-4.5,0-.4,0-.4,0-.4,1-1.1,2.2-1.9,4.2-1.9,1.6,0,2.8-.1,4.3,1.3.5,1.8.5,3,.5,4.5-1,.6-2.1.9-3.5,1.2-1.8,0-3.2-.1-5-.2Z"/>
  <path class="st101" d="M43.9,194.8c.3,1.4.3,2.3.3,3.5-1.4.5-2.9.6-4.8.8-.4,0-.4-.1-.4-.2-1.1-.9-1.3-1.9-.4-3.4.3-.3.3-.4.4-.4,1.4-1.4,2.8-2.1,4.8-.2Z"/>
  <path class="st25" d="M60.9,96.5c-.9.4-1.8.5-3,.6-.5-1.4-.7-2.8-.8-4.7,1-.4,2-.4,3.4-.4.4,1.4.4,2.7.5,4.5Z"/>
  <path class="st23" d="M47.6,187.3c1.4-.5,2.4-.7,3.9-.8.4,0,.4.4.5.6.8.8,1.2,1.5,1,2.9-.4.6-.6.9-1.3,1.2-1.7.7-2.9.9-4.4-.3-.7-1.4-.7-2.3.3-3.6Z"/>
  <path class="st7" d="M47.7,186.8c.3.8.3,1.6.3,2.7-.3,1.7-1.2,2.1-2.9,1.8-.6-.4-.8-.5-1.1-1.1-.1-1.1-.2-1.8-.2-2.9.8-.5,1.6-.6,2.7-.8.6,0,.7.1,1.2.3Z"/>
  <path class="st9" d="M65.9,172.9c0-1.4,0-2.7.3-4.4,1.4-.4,2.6-.5,4.7-.3,2.2,1.6,1.9,3.3,1,5.4-1.8,1.7-3.4,1.7-5.3,0-.4-.3-.6-.6-.7-.7Z"/>
  <path class="st7" d="M71.2,164.4c1.1-.7,2.1-1.1,3.5-1.5,2.5.9,2.6,2.5,1.5,4.9-1.4,1.6-2.7,1.9-4.5.7-.4-.4-.5-.4-.6-.5,0-1.1,0-2.1.2-3.6Z"/>
  <path class="st44" d="M71,114c0,1.4,0,2.8,0,4.6-1.3.4-2.6.4-4.4.3-.5-1.4-.7-2.7-.8-4.5,0-.4.2-.4.3-.4,1.2-1.4,2.5-1.9,4.4-.3.3.3.4.3.5.3Z"/>
  <path class="st79" d="M61.4,248c-.4-1.1-.5-2.2-.5-3.6,0-1.5.1-2.5.3-3.9,2.3-.6,4.5-.8,4.7-4.1.1-1.7.2-3.1.4-4.8,1.4-.4,2.7-.5,4.4-.5.4,1.4.4,2.8.5,4.6,0,1.2,0,1.9,0,3,1,4.7-4.6,5.1-5,9-1.4.4-2.8.4-4.6.3Z"/>
  <path class="st120" d="M61,199.4c1.3-.4,2.7-.4,4.4-.3,1.5.9,2.6,1.8,2,3.8-.4.6-.5.8-1.1,1.1-1.8,0-3.1-.2-4.9-.4-.4-1.3-.4-2.6-.4-4.2Z"/>
  <path class="st92" d="M71.3,209c-1.7,0-3,0-4.6-.1-.5-1.3-.6-2.6-.7-4.3,0-.4.1-.7.2-.8,1.3-1.2,2.5-2.1,4.7-1,.7.4.9.6,1.4,1.2.7,2,1.2,3.6-.9,5Z"/>
  <path class="st44" d="M35.1,198.5c-1.7.3-3,.4-4.8.4-.3-.9-.3-1.9-.2-3.2,1.3-.5,2.7-.6,4.4-.7.4,0,.7,0,.8,0,.7,1.1,1,2.2-.3,3.5Z"/>
  <path class="st29" d="M44.1,195.2c-1.4,0-2.8-.1-4.6-.2-.4-1.2-.4-2.4-.5-3.9,1.3-.6,2.7-.8,4.5-1.2.4,0,.6.3.7.4,1.4,1.3,1.8,2.6.3,4.4-.3.4-.4.5-.4.5Z"/>
  <path class="st130" d="M35.2,198.8c-.3-1-.1-2,.2-3.4,1.1-.4,2-.4,3.2-.4.4,1,.4,2,.4,3.3-1.1.4-2.3.4-3.8.4Z"/>
  <path class="st52" d="M70.9,209.5c0-1.7,0-3.1,0-5,.8-2,2-2.4,4.1-1.9,1.7,1.7,2.1,3.3,1.9,5.6-.2,1.6-.4,2.6-1.7,3.5-1.4.2-2.4.1-3.7.1-.4-.7-.5-1.4-.6-2.4Z"/>
  <path class="st124" d="M70.8,113.7c-1.3.4-2.5.4-4.2.3-.5-1-.6-2.1-.7-3.5,0-.4,0-.4,0-.5,1.3-1.3,2.6-2,4.5-.2.3.4.3.4.3.4,0,1,0,2.1,0,3.5Z"/>
  <path class="st105" d="M43.8,24.6c-5.3.5-4.7-3.5-4.9-7.3,0-1.8,0-3.1.2-4.8,1.4-.4,2.7-.4,4.4-.4.4,4,.4,8.1.4,12.6Z"/>
  <path class="st59" d="M75.6,168.6c-.6-2.1-.6-3.5-.6-5.4,0-.8,0-1.2,0-1.9,3.9-1,8.2-1,10-6,2.4-.4,4.8-.4,7.6-.4,2.9-2.6,6-1.6,9.5-1.2,1.4,1.3,1.8,2.6,1.5,4.6-.3.8-.4,1.1-1,1.7-3.1.8-5.7,1-8.5.9-5.1-.3-9.1,2-11.9,6.3-1.4,2.2-3.2,3.5-6.6,1.5Z"/>
  <path class="st109" d="M51.6,38.7c.4,1.1.5,1.9.7,3,0,1.8-.1,3.2-.3,5-1.1.4-2.2.4-3.7.4-.7,0-1.1.1-1.8-.1-1.7-3.1-.6-5.7.5-8.6,1.7-.9,3-1.1,4.5.4Z"/>
  <path class="st105" d="M46.7,46.7c.3.2.8.3,1,.4,0,2.7-.3,5.4-.6,8.5,0,.4,0,.5,0,.5-.7.6-1.5.9-2.7.2-.3-.3-.4-.3-.5-.2,0-2.7,0-5.4.2-8.6.6-1.1,1.4-1.3,2.5-.7Z"/>
  <path class="st35" d="M44.1,56.4c.8-.4,1.5-.4,2.6-.4.4,1.4.3,2.7.3,4.5-.8.4-1.5.4-2.6.4-.3-1.4-.3-2.8-.3-4.6Z"/>
  <path class="st64" d="M180.2,186.6c-.2,1.1-.2,1.9-.2,3.1-.4.4-.8.5-1.6.5-1.7,0-3.2,0-5-.1-4.1,0-7.8-.1-11.9-.2-.5,0-.5,0-.5,0-.7-.7-1.4-1.3-1.6-2.8-.5-2.1-.4-3.6.4-5.6.9-1.3,1.8-1.5,3.2-1.6,2,0,3.5-.3,5.5,0,2.4,3.3,5,5.2,9.1,4.3,1.5-.3,2.5.4,2.6,2.4Z"/>
  <path class="st93" d="M190.5,162.6c4.8.4,9.2.4,14.1.5.4,1.4.4,2.8.3,4.6-1.6,2.7-4.1,2.8-6.5,2.8-3.4,0-6.9,0-10.8,0-7.6-.1-14.8.9-22.3-.9-.8-.2-1.1-.3-1.8-.7-1.3-1.9-1.7-3.5-.6-5.7.5-.7.8-.9,1.6-1.3,8.1-1.3,15.8-.5,23.5-.7.8,0,1.5.6,2.6,1.5Z"/>
  <path class="st114" d="M186.6,168.4c6-.4,11.7-.4,17.8-.4.6,2.7.7,5.3.9,8.4,0,.4-.2.5-.3.6-1.1,1.2-2.1,2.3-4.4,1.5-.7-.3-1-.4-1.6-.9-1.8-3.6-4.9-2.4-7.4-2.7-1.8-.3-3.8.4-5.7-1.4-.7-1.9-1.3-3.5.6-5.1Z"/>
  <path class="st32" d="M180.5,187c-2.8-.2-5.1-.2-7.3-.5-2.1-.3-3.8-1.3-4.1-4.1.8-2.9,3-2.7,4.9-2.7,8.3,0,16.5-.4,25.3.2,2.1.1,3.9-.1,5.3,1.9.3,1.7.3,3.1.3,4.8-8,.4-16,.4-24.4.4Z"/>
  <path class="st96" d="M204.9,181.6c-1.4.4-2.7.3-4.5.3-1.8-1.3-2.6-2.6-.8-4.7,1.8-.2,3.1-.2,4.9-.2.4,1.4.4,2.8.5,4.6Z"/>
  <path class="st78" d="M92.5,137.6c4.4-.4,8.5-.5,13-.6,4.8,0,9.1,0,13.9,0,1.6,1,2.4,2,1.7,4.1-3.3,2.5-6.7,2.3-10.6,2.3-6.2-.2-12,.9-18.1-1.1-1-1.7-1.2-3,0-4.7Z"/>
  <path class="st123" d="M119.6,141.4c.3-1.4.4-2.5.3-3.9,1-.4,2.1-.5,3.5-.5,1.6-1.1,2.7-2.3,5.1-1.3.7.3,1,.5,1.5,1.1,1.4,3.3,1.6,6.1-.1,9.4-1.6,1.5-3.2,2-5.4,1.9-1.9.1-3.2-.3-4.8-1.2-1.4-1.9-1.9-3.4-.1-5.4Z"/>
  <path class="st106" d="M129.3,136.8c-1.8.2-3.2.2-5,.2-.4-4-.4-8-.3-12.5,1.3-.5,2.6-.6,4.2-.6,1.6,0,2.2.8,2.7,2.4.2,3.9,1.4,7.3-1.6,10.6Z"/>
  <path class="st31" d="M129.5,127.5c-.5-1.2-.6-2-.8-3.2,0-3.4.2-6.3.4-9.8,1.4-.5,2.7-.5,4.4-.5.4,0,.5,0,.5,0,2.6,3.6,2.1,7.8,1.6,11.7-.4,3-2.7,4.2-6.1,1.8Z"/>
  <path class="st97" d="M47,46.5c-.7.4-1.4.4-2.5.4-.4-2.3-.5-4.7-.7-7.5,0-4.8,0-9.1.1-13.9.8-.5,1.5-.5,2.7-.5.7,2.7,1,5.4,1.4,8.5,1.3,1.7,2.1,3.1.3,5.1-.7,2.7-1,5.1-1.3,7.8Z"/>
  <path class="st74" d="M151.2,127.5c-.2-1.2-.2-1.9-.2-3.1,2.7-.5,5.3-.4,8-.7,2.5-.2,4.6-1.1,5-4.4,1.4-.5,2.8-.6,4.5-.7.7,0,.9.2,1.5.6,1,1.6,1.1,3,.2,4.7-1.9,1.8-4.5,1.8-6,4.2-2.6,1.3-5,1.3-7.9,1-2,0-3.7.2-5-1.7Z"/>
  <path class="st58" d="M168.8,114.3c0-.4.1-.8.2-1.1,1.6-1.1,3.1-.7,4.8.6,1.2,1.9,1.2,3.5,0,5.4-1.5,1.3-2.7,1.5-4.4.2-.4-.3-.5-.6-.5-.7,0-1.4,0-2.7,0-4.4Z"/>
  <path class="st21" d="M173.3,105.7c1.3-.5,2.6-.7,4.6-.7,1.8,1.3,2.3,2.6,1.5,4.5-.3.7-.4.9-.9,1.4-1.7.7-3.1,1.3-5-.3-.4-2-.3-3.3-.2-4.9Z"/>
  <path class="st21" d="M173.2,113.8c-1.4-.1-2.5-.4-3.8-.7-.1-2.1,1.8-2,3.3-3,.3-.1.3-.1.4,0,.7.7,1.5,1.4,1.2,2.9-.3.5-.5.7-1,1Z"/>
  <path class="st49" d="M178.1,102.5c1.4-.4,2.7-.4,4.4-.5,1.4.6,1.7,1.5,1.3,3.1-1.8,1.6-3.3,2-5.3.2-.3-.4-.5-.4-.5-.5,0-.7,0-1.4.1-2.4Z"/>
  <path class="st99" d="M182.6,105.2c.3-1.1.3-1.8.3-2.9,0-.4.2-.8.2-1,1.2-1.3,1.2-2.9,2.7-4.1.5-1.6.8-3,1.2-4.8,1.4-.4,2.7-.5,4.5-.6.4,1.4.4,2.8.5,4.6-.2,2.6-.4,4.6-2.8,5.6-3.4,1.4-1.7,6.4-5.5,7.9-.6,0-.9,0-1.4-.4-1.2-1.7-.9-3,.5-4.4Z"/>
  <path class="st99" d="M192.3,91.8c-.3-1-.3-2-.3-3.4,1-1.3,2-1.8,3.7-.8.4.3.4.4.5.4-.3,2.1-1.1,3.7-3.9,3.8Z"/>
  <path class="st82" d="M182.6,118.6c2,6.8-3.3,9.6-6.8,13.2-1.3,1.3-2.7,2.4-3,5.2-5.3,4.1-10.1,8.7-17.3,4.8-1-1.3-1.4-2.3-1-3.9,1.4-2.7,5.1-2.9,5.3-6.6.8-.9,1.4-1.3,2.6-1.2,2.3,0,4.3,0,5.1-2.7.2-.6.3-.8.7-1.2,1.3-.7,2.7-.4,3.3-2.2.3-.5.4-.7.9-1.1,2.5-.5,3.8-1.8,4.4-4.3.4-.5.7-.6,1.3-.9,1.8-.7,3.1-.6,4.4,1Z"/>
  <path class="st45" d="M173,137c7.4,0,14.7,0,22.6,0,.5,0,.4,0,.4,0,1.1,1,1.8,2.1,1.2,4.2-3.3,3.3-7.1,2-10.6,2.2-2.5.2-5,0-8-.3-2.3,0-3.9-.3-6-1.3-1.4-1.6-1.4-2.9,0-4.5.4-.4.3-.4.3-.4Z"/>
  <path class="st91" d="M182.9,118.5c-1.4.4-2.8.4-4.5.4-2.3-1.1-2.4-2.7-1.3-5,1.8-1.6,3.3-2.2,5.5-.6.4.3.5.5.6.6,0,1.4-.1,2.8-.2,4.5Z"/>
  <path class="st99" d="M183,113.4c-1.4.4-2.7.5-4.9.4-1.6-1.2-1.6-2.2-.4-3.5.3-.3.4-.3.4-.3,1.1-1.4,2.3-2,4.3-.5.3.3.5.5.6.6,0,1,0,2-.1,3.3Z"/>
  <path class="st22" d="M232.1,127.1c.2,3.3-1.6,5-4.9,5.8-1,1-1.8,1.4-3.3,1.1-.7-.4-.9-.7-1.2-1.4-.6-2-.9-3.6,1-5.1.4-.3.3-.4.3-.4.6-.6,1.2-1.3,2.6-1.4,1.9.1,3.4-.3,5,1.1.3.3.4.4.5.4Z"/>
  <path class="st20" d="M223.5,133.5c1.1-.4,1.8-.4,2.9-.5.4,1,.4,2.1.4,3.5-.7.4-1.5.5-2.5.4-1.6-.8-1.8-1.8-.8-3.4Z"/>
  <path class="st84" d="M74.7,212.4c0-1.2,0-2,.2-3.2,1-1.2,2-2.2,3.9-1.5,1.6,1,1.8,2.3,2.6,3.8.4,2,1,3.6-1.2,4.9-.4.3-.5.4-.6.5-1.3.1-2.6.1-4.3.2-.4-1.4-.5-2.8-.6-4.7Z"/>
  <path class="st78" d="M85.2,137.4c-.3-.2-.7-.4-.8-.5-1.4-1-2.6-2-1.8-4.3.3-.7.4-1,1-1.5,1.6-.7,2.8-.9,4.1.6.3.3.3.3.3.3,0,1.4,0,2.7,0,4.8-.9,1.2-1.6,1.3-2.7.6Z"/>
  <path class="st66" d="M92.5,137.2c.5,1,.5,2,.6,3.3-1.1,2.3-2.5,2.4-4.6.9-.4-.4-.4-.4-.4-.4-.9-.9-1.4-1.8-.4-3.3.3-.3.4-.5.4-.6,1.4,0,2.7,0,4.4.2Z"/>
  <path class="st77" d="M196.2,141.4c-.2-1.5-.2-2.5-.2-4,4.4-.3,8.8-.3,13.7-.2,1.4.8,2.1,1.7,1.6,3.5-.3.7-.5.9-1,1.4-1.8.8-3.3,1.1-5.3,1-3.2,0-6.2,1-8.7-1.7Z"/>
  <path class="st62" d="M223.8,132.9c0,1.2,0,2.2,0,3.5,0,.4,0,.4,0,.4-1.1,1.1-2.1,2.4-4.3,1.5-.7-.3-1-.5-1.4-1-.2-1.7-.1-2.9,0-4.6,0-.4.5-.6.7-.7,1.4-1.5,2.8-2.1,4.7-.4.3.5.3.7.2,1.2Z"/>
  <path class="st1" d="M217.6,137c.6,0,.8,0,1.2.2,1.3,1,1.4,2,.4,3.5-.3.3-.3.3-.3.3-1.2,1.5-2.6,2.2-4.9,1-1.4-1.5-1.6-2.7-.3-4.4,1.4-.4,2.5-.5,3.9-.6Z"/>
  <path class="st46" d="M213.7,137.2c.4,1,.3,2,0,3.8-1.2,1.6-2.3,1.7-3.6.5-.2-1.4-.2-2.4-.1-3.8,1.1-.4,2.1-.4,3.6-.5Z"/>
  <path class="st83" d="M147.5,181.6c-1.7.4-3.1.5-4.8.6-1.7.8-2.8,2.2-5,1.2-.7-.3-1-.5-1.5-1-.4-1.8-.7-3.3-.3-5.2,4.5-2.1,3.1-7.3,6.2-10.3,1.9-1,3.4-.9,5.3-.2,2,1.3,1.8,3,1.8,5.1,0,1.8,0,3-.1,4.8,0,2,0,3.5-1.5,5.1Z"/>
  <path class="st19" d="M137,182.3c1.8-.2,3.1-.2,4.8-.1.4,2.3.4,4.5.4,7.2,0,.4-.1.5-.2.6-1.4,1.7-3,2-5.3.8-1.3-3-1.5-5.6.3-8.5Z"/>
  <path class="st88" d="M151.4,187.4c-.4-1.7-.5-3-.3-5.3,4.7-2.5,5.9-1.8,6.6,3.7-.3.8-.5,1.1-.9,1.7-1.9.9-3.4,1.2-5.3-.1Z"/>
  <path class="st88" d="M147.5,182c-.4-1.4-.4-2.8-.4-4.6,1-1.6,2.1-2.1,4.1-1.1,1.5,1.8,2,3.3.2,5.3-.4.4-.5.5-.5.6-1,0-2,0-3.3-.1Z"/>
  <path class="st8" d="M151.1,187.4c1.3-.3,2.7-.3,4.4-.3,1.2.6,1.3,1.4.7,2.6-.3.3-.3.4-.3.4-1.9-.2-3.9,0-4.8-2.7Z"/>
  <path class="st81" d="M227,119.6c1.4-.5,2.8-.5,4.6-.6.4,1.4.4,2.7.3,4.5,0,.4,0,.4,0,.4-1.3,1.5-2.7,2-4.7.4-.3-1.7-.3-3.1-.2-4.8Z"/>
  <path class="st118" d="M227,123.9c1.4,0,2.7,0,4.5,0,.4.7.4,1.5.4,2.6-1.4.4-2.7.4-4.5.4-1.1-.7-1.3-1.4-.7-2.7.3-.3.3-.4.3-.4Z"/>
  <path class="st66" d="M78.8,127.4c.1-.4.3-.4.7-.4,1.3-.9,2.4-1.4,4.1-.3.4.3.6.7.7.8.8,1.2,1.4,2.3.3,4-.3.4-.5.4-.6.5-1,1.1-2.1,1.4-3.7.3-.7-1.7-1.1-3.1-1.5-4.9Z"/>
  <path class="st123" d="M84.6,132c-.4-1.1-.4-2.2-.4-3.8,2,0,3.6.8,3.7,3.5-1,.3-2,.3-3.3.3Z"/>
  <path class="st123" d="M84,126.7c-1.2.4-2.3.4-3.8.3-.4-.8-.4-1.5-.4-2.6,1.1-.4,2.3-.4,3.9-.4.4.8.4,1.5.3,2.7Z"/>
  <path class="st33" d="M129.7,235.9c-.5-1.3-.7-2.7-.9-4.4,0-3.1,0-5.9-.1-9,0-.7.2-1,.6-1.5,1.7-1.2,3-.9,4.8-.2.6.4.8.7,1.1,1.3.2,4.6.8,8.8-.8,13.3-1.7.4-2.9.4-4.6.5Z"/>
  <path class="st116" d="M134.4,235.8c-.4-4.3-.5-8.6-.5-13.3.6-1.4,1.4-1.5,2.8-.9.4,4.6.4,8.9.4,13.7-.8.5-1.5.5-2.7.4Z"/>
  <path class="st3" d="M142.7,33.9c-.4-1.4-.4-2.8-.4-4.6,1.3-.4,2.6-.4,4.2-.3.4,1.4.4,2.8.5,4.5-1.3.4-2.6.4-4.3.4Z"/>
  <path class="st3" d="M196,87.5c-1.1.4-2.2.5-3.6.5-.4-1.3-.5-2.6-.6-4.3,1.1-.5,2.2-.6,3.7-.7.4,1.4.5,2.7.5,4.4Z"/>
  <path class="st47" d="M223.9,131.7c-1.4.4-2.7.4-4.5.4-.4-1.4-.4-2.7-.5-4.5,1.4-.4,2.8-.5,4.6-.5.4,1.4.3,2.8.3,4.6Z"/>
  <path class="st14" d="M226.6,124c.4.8.4,1.5.4,2.6-.8.4-1.5.4-2.6.4-.4-.8-.4-1.5-.4-2.6.7-.4,1.5-.4,2.6-.4Z"/>
  <path class="st3" d="M48.4,39c-.4-1.4-.4-2.8-.4-4.6,1.1-.4,2.2-.4,3.6-.4.4,1.4.4,2.8.4,4.6-1.1.4-2.2.4-3.6.4Z"/>
  <path class="st113" d="M80.2,216.7c-.4-1.4-.3-2.6-.2-4.3.9-2.1,2.4-1.9,4.4-1,.2,2,0,3.4-.5,5.2-1.1.3-2.3.3-3.8.1Z"/>
  <path class="st113" d="M87.9,209c0,.8,0,1.5,0,2.5-.7.4-1.5.4-2.5.5-.4,0-.4,0-.4,0-.7-.7-1.2-1.5-.8-2.9,1-1.1,1.8-1.3,3.2-.6.4.3.5.5.6.7Z"/>
  <path class="st68" d="M137,221.5c-.8.5-1.6.5-2.8.5-.4,0-.4,0-.5,0-1-1.3-2.1-2.5-1.9-4.7-.6-9.2-.4-17.9-.2-27.1,0-3.2-.4-5.9,1.3-8.8,1.4-.8,2.4-.8,3.8.1.4.3.6.4.7.4,0,2.4-.1,4.7-.2,7.5,3.8,7.5,3,14.7.4,22.4-.4,3.4-.4,6.3-.5,9.7Z"/>
  <path class="st42" d="M137.7,212.2c-.4-7.1-.5-14.2-.5-21.8,1.4-.4,2.7-.4,4.4-.3.4,5.6.4,11.3.5,16.9,0,2.8-.8,4.9-4.4,5.3Z"/>
  <path class="st33" d="M120.4,212c-.4-4-.4-8-.3-12.5.9-1.5,2-2.2,3.9-1.5,3.2,4,2.8,8.1,1.6,12.6-.4.7-.6.9-1.3,1.3-1.5.1-2.5,0-3.8,0Z"/>
  <path class="st33" d="M124.4,217.3c-.4-1.7-.5-3-.5-4.8,0-.4.1-.5.2-.6,1.3-1.5,2.7-2.2,5.1-1.2,2.1,1.4,2.2,3,1.4,5.2-.3.8-.5,1.1-1,1.7-1.9,1.1-3.5,1.6-5.2-.4Z"/>
  <path class="st113" d="M124,217.4c1.3-.4,2.6-.4,4.3-.3,2.5,1,2.5,2.4,1,4.6-.4.4-.5.4-.6.4-1.4,0-2.6,0-4.3,0-.4-1.4-.4-2.8-.4-4.6Z"/>
  <path class="st40" d="M114.9,189.7c.1,2.5,0,4.7,0,6.8-.1,7-.3,7.2-7.6,7.6-4.8,0-9.2-.1-14-.2-1.9-1.2-2.6-2.5-1.5-4.8,2.4-2.7,5.4-1.4,8.3-2.2,2.3,0,4.6.9,5.1-2.6,1.2-2,3-3.1,4-5.3,1.6-.8,2.9,0,4.5-.3.6.3.8.5,1.1,1Z"/>
  <path class="st84" d="M92.9,198.8c.1,1.7,0,3,0,4.7-1.4.5-2.8.5-5,.4-2.1-1.6-2-3.1-1.2-5.1,1.4-1.8,2.9-1.6,4.9-1.2.7.4.9.6,1.3,1.2Z"/>
  <path class="st40" d="M87.7,208.3c-.7.4-1.4.5-2.4.5-.6.2-.8.4-1.5.4-1.6-1.3-2-2.6-1.3-4.6.3-.7.4-1,.9-1.5,1.5-.7,2.7-.9,4.1.4.3.3.4.5.4.5,0,1.3-.1,2.6-.2,4.3Z"/>
  <path class="st21" d="M129,127.5c3.6-.4,5.1-2.2,5-5.7,0-2.3,0-4.6,0-7.4.7-.4,1.5-.4,2.6-.4,2.1,7.3.3,14.6.2,22.8-2.5,2.7-4.9,2.9-7.5.5-.4-.3-.4-.4-.4-.4,0-3,0-6.1.1-9.5Z"/>
  <path class="st43" d="M150.6,127.1c1.8,0,3.2,0,5.1.1,1.4,1,2.5,1.8,1.9,3.8-.2.6-.3.9-.5,1.5-1.9,1.3-4.1,1.6-4.7,4.4-.3.6-.4.8-.8,1.2-1.3.5-2.3.9-3.6.2-.5-.3-.7-.5-1-1.1.6-3.8-1.7-8.2,3.7-10.1Z"/>
  <path class="st48" d="M137,136.9c1.4,0,2.9,0,4.7,0,1.3,1,2.3,1.9,2.2,3.8.3,2.2-.2,3.8-1.3,5.7-1.9,1.4-3.6,1.6-5.7.4-2.3-3.2-3-6.1-.3-9.5.4-.4.4-.5.4-.5Z"/>
  <path class="st43" d="M142.5,141.3c-.3-1.4-.4-2.5-.4-3.9,1.3-.4,2.6-.5,4.3-.5.4,0,.5,0,.5.1,1.1,1.1,1.7,2.2.8,4.1-1.8,1.6-3.4,2-5.3.2Z"/>
  <path class="st105" d="M70.9,109.7c-1.4.4-2.7.3-4.4.3-.4-1.4-.4-2.8-.4-4.6,1.4-.4,2.7-.4,4.5-.3.4,1.4.4,2.8.3,4.7Z"/>
  <path class="st102" d="M219.3,141c-.3-1-.3-2-.2-3.4,1.4-.5,2.7-.5,4.5-.6.2,1,0,2.1-.2,3.5-1.3.4-2.5.4-4.1.5Z"/>
  <path class="st119" d="M156.4,190c-.4-.7-.4-1.5-.4-2.6,0-.4,0-.4,0-.5,1.3-1.3,2.6-2,4.6-.4.4,1.1.4,1.8.4,3-1.4.4-2.8.4-4.6.4Z"/>
  <path class="st102" d="M214,141c1.4,0,2.7,0,4.5,0,.4,1.3.3,2.6.2,4.3-1.3.6-2.5.7-4.1.9-.4,0-.5-.2-.6-.3-1.4-1.3-2-2.7-.2-4.6.3-.3.3-.4.3-.4Z"/>
  <path class="st20" d="M199.9,150.6c-.6,3.7-3.3,4.1-5.9,4.2-4.9.2-9.8.1-15.2.2-1.8,1.2-3.3,2.2-5.8,1.4-2.4-5.1-1.3-7.4,3.7-7.7,7.1-.3,14.2-.8,21.7.6.7.4,1,.6,1.5,1.3Z"/>
  <path class="st131" d="M191,162.6c-8.4.4-16.7.4-25.5.4-1.7-1.1-2.1-2.4-1.3-4.4,4.6-2,8.9-2.1,13.6,0,4.5.5,8.6-.1,12.9,1.2.4.9.4,1.7.3,2.8Z"/>
  <path class="st13" d="M178.2,158.6c-4.1.5-8.2.6-12.8.7-3.2,2.3-6.3,1.5-9.8.7-1.3-1.8-1.5-3.2-.6-5.3,5.8-2.3,11.4-2.2,17.4-.4,2,.4,3.5.5,5.4.7.4,1.1.4,2.1.3,3.6Z"/>
  <path class="st20" d="M209.5,145.4c.3,7.4-4.9,5.1-9,5.7-.4,0-.5,0-.6-.1-1.5-1.3-2.2-2.7-1.3-5,1.2-2.3,2.9-2.1,5.1-2.1,2,.2,3.7-.3,5.7,1.5Z"/>
  <path class="st20" d="M213.7,141.1c.4,1.3.3,2.7.2,4.4-1,.4-2.1.5-3.5.6-.4,0-.4,0-.5,0-1.3-1.3-2-2.6-.2-4.5.4-.3.3-.4.3-.4,1.1,0,2.1,0,3.6,0Z"/>
  <path class="st48" d="M185.7,97c.2,1.6,0,3.2-2.1,4-.4-1-.4-2.1-.5-3.6.8-.4,1.5-.4,2.6-.3Z"/>
  <path class="st113" d="M124.7,198.4c-1.7.6-2.8.6-4.2.6-.4-2.7-.5-5.4-.3-9,1.4-1.8,2.6-1.6,4.2-.7,2,2.9,2.5,5.6.3,9.1Z"/>
  <path class="st40" d="M120,190c-1.4,0-2.7,0-4.5,0-.4,0-.5,0-.5,0-.7-.7-1.4-1.5-1.3-3.1.2-.8.3-1.1.9-1.7,2-1.2,3.7-1.2,5.8-.1,1.4,1.6,1.4,2.9,0,4.5-.4.4-.4.4-.4.4Z"/>
  <path class="st36" d="M102.5,155.4c-3.2-.4-5.9-.5-9-.5-.4-1-.4-2.1-.4-3.4,0-.4,0-.4,0-.4,4.5-3.9,9.5-2.8,14.8-.7.9,2.2,1.7,4,0,5.5-1.6,1.5-3.3,1.3-5.3-.4Z"/>
  <path class="st39" d="M88.1,141.3c1.4-.4,2.7-.4,4.5-.5,5.8,0,11.1.1,16.9.2,2.1,1.3,2.5,2.9,1.6,5.3-5.9,3-11.7,3-17.8,0-3.2-.4-5.4-1.2-5.3-5Z"/>
  <path class="st112" d="M93,146.4c5.4-.4,10.7-.4,16.5-.5,1.9-1.4,3.4-2.5,5.9-1.1,1.2,2.1,2.1,3.8.9,6.3-3,1.9-5.7,2.9-9,.4-4.8-.4-9.1-.4-13.9-.5-.5-1.4-.5-2.8-.5-4.6Z"/>
  <path class="st39" d="M79.9,132.5c1.1-.4,2.1-.4,3.6-.4.5,1.3.6,2.7.7,4.4-1.1.4-2.2.5-3.8.5-.4-1.4-.5-2.7-.5-4.5Z"/>
  <path class="st39" d="M87.6,137.2c.4,1,.4,2,.5,3.3-1.8.1-2.8-.9-3.1-3,.7-.3,1.5-.3,2.7-.3Z"/>
  <path class="st104" d="M79.3,195.3c-6-.3-11.7-.3-17.8-.3-1.8-1.2-2.8-2.4-1.6-4.8,1.4-1.6,2.9-1.9,4.9-1.6,4-.2,7.7.2,10.5-2.9.3-.3.9-.6,1.4-.5,6.7.6,11.2-4.7,17.1-6.3,3.6-1,6.2-3.6,7.9-7.5,2.9-.9,5.4-.8,8.2.5,2.6,2.6,2.7,5.4,2,8.7-.2.7-.3,1-.6,1.7-.8,1-1.7,1.2-2.9,1.6-3.1-.2-4.5,1.5-5.8,4-1.2.9-2.3.3-3.6.8-3.5-.1-7-1.9-9.3,2.3-1.4,1.9-4.2,1.7-4.6,4.7-.5.5-.7.6-1.3.9-1.9.8-3.1.5-4.5-1.1Z"/>
  <path class="st107" d="M78.9,195.4c1.5-.3,2.9-.3,4.7-.3,1.8.6,2.1,1.7,1.6,3.6-1.8,2.2-4.2,3-5.3,5.5-.8,2-2.7,2.1-4.8.2-1.4-.3-2.4-.3-3.9-.2-.4,0-.4,0-.4,0-1.2-1.3-2.1-2.6-.3-4.7,3.3-.5,6.6,0,8.3-4.1Z"/>
  <path class="st50" d="M61,189.9c0,1.7,0,3,0,4.7-2.4.4-4.7.5-7.5.5-.6,0-.8,0-1.2-.1-1.5-1.3-2.2-2.6-.4-4.4.4-.3.4-.4.4-.4.8-1.4,2.3-1.5,4-1.8,1.4.2,2.5-.2,3.9.5.5.3.7.5,1,1Z"/>
  <path class="st52" d="M70.5,199c.4,1.4.4,2.8.4,4.6-1.3.3-2.7.2-4.4,0-.5-1.3-.6-2.6-.7-4.2,1.4-.4,2.8-.4,4.6-.5Z"/>
  <path class="st27" d="M51.8,190.2c.4,1.3.3,2.6.2,4.3-2.3.4-4.6.5-7.3.5-.4-1.3-.4-2.6-.4-4.2,1-.5,2-.6,3.4-.9,1.5,0,2.6.1,4.1.3Z"/>
  <path class="st23" d="M66.2,173.6c1.4-.4,2.7-.5,4.4-.7,1.4-1,2.4-1.7,4.3-1,1.3,1.2,1.9,2.2,1.6,4-1.4,2.6-4.3,3.5-4.9,6.7-1.5,1-2.8,1.4-4.7,1.4-1.8,0-3.2.2-4.9-.6-.6-.4-.8-.6-1.1-1.2,0-1.7,0-2.9.1-4.6,2.1-.8,4.5-.9,5.1-4Z"/>
  <path class="st23" d="M57,187c0-2.6.4-4.6,3.5-5.1.3,0,.5,0,.5.1,1.1,1.1,2.2,2,1.5,4.1-.2.7-.3.9-.7,1.5-1.3,1.1-2.4.5-3.9.6-.5-.4-.7-.6-.9-1.2Z"/>
  <path class="st6" d="M57.3,189.7c-1.6.4-3,.4-4.7.4-.4-.7-.5-1.4-.5-2.5,1.4-.5,2.7-.7,4.5-1,.4,0,.4.2.5.4.7.8.9,1.5.3,2.7Z"/>
  <path class="st59" d="M75.7,172.4c-1.7.5-2.8.5-4.3.5-.4-1.4-.3-2.7-.3-4.5,1-.4,2.1-.5,3.4-.5.4,0,.4,0,.5,0,1.1,1.1,2.2,2.1.6,4.4Z"/>
  <path class="st70" d="M74.8,204.4c1.9-.5,3.4-1.3,4.3-3.2.8-1.7,2.3-2.2,4.8-2.1,2,1.5,2.1,2.9.4,4.5-.3.3-.3.4-.3.4-1.7,1.2-2.2,3.1-3.2,5.1-.5.3-.8.3-1.4.2-1.4-.3-2.6-.4-4.1-.5-.5-1.4-.5-2.7-.5-4.4Z"/>
  <path class="st108" d="M75,177.2c0-1.4,0-2.4,0-3.8,0-.4,0-.4,0-.4,2.9-3,6.9-4.6,9.2-8.5,1.9-3.2,5.7-3.7,9.3-3.7,2.4,0,4.8.8,7.2-1.4.3-.3.8-.4,1-.4,2.7-2.5,5.4-2.3,8.5-.2,1,1,1.5,1.8,1.3,3.3-5.3,4.4-9.7,9.9-17.4,8.5-1.9-.3-4.1,0-4.6,3-2.8,2-3.8,6.1-8.4,5.4-1.9-.1-3.3.3-5-.7-.6-.4-.8-.6-1.1-1.2Z"/>
  <path class="st29" d="M100.6,159.1c.2,3.3-2.1,4-4.8,3.9-5.3-.3-9.6.6-12.4,6-1.3,2.5-4.3,4-8,4-.4-1.4-.4-2.7-.4-4.5,3.9.3,4.8-3.3,6.9-5.2,5.3-4.8,11.7-4.6,18.7-4.2Z"/>
  <path class="st65" d="M110.4,160.1c-2.9-.5-5.2-.8-8.1-1.1-.4-1.1-.3-2.1-.3-3.6,2.3-.4,4.5-.7,4.9-3.9,2.4-.4,4.7-.4,7.5-.4,2,.3,2.5,1.4,2.5,3.4,0,1.8,0,3.1-.7,4.8-1.7,2.1-3.6,1.8-5.9.9Z"/>
  <path class="st12" d="M200,177c0,1.4,0,2.7,0,4.5-10,.4-20,.5-30.5.5-1.8,0-3.1-.1-4.8-.2-2.3-1.1-2.6-2.7-1.4-5.1,5.8-3,11.7-1.1,17.3-1.5.7,0,1.6-1.1,2.9-.1,5.5.5,10.7-1.3,16.1,1.5.4.4.4.4.4.4Z"/>
  <path class="st2" d="M161,186.5c-1.4.4-2.8.4-4.6.4-.4-2.9-1.4-4.9-5-5-.4-1.4-.5-2.7-.4-4.9,1.2-1.9,2.5-2.3,4.3-1.5,2.1,2,3.8,3.9,5.6,6,0,1.8,0,3.1,0,4.9Z"/>
  <path class="st32" d="M161.4,182c-3-.3-5.1-1.2-5.2-5,2-2.4,4.1-1.6,6.6-1.5.6.4.8.5,1.2,1.1.2,1.7.2,3.1.2,4.8-.8.5-1.6.5-2.8.6Z"/>
  <path class="st41" d="M186.5,168.1c.5,1.4.5,2.7.5,4.5-.4,1.5-1.2,2-2.8,2.1-6.3.5-12.1.3-18.3-.2-1.5-2-3.1-3.6-1.2-6.1,7.4-.4,14.4-.4,21.9-.3Z"/>
  <path class="st114" d="M163.6,162.7c.3,1.8.4,3.1.4,4.9-1.8,3.7-4.9,2.4-8.2,2.7-6.6-.4-7.1-1-5.8-7,4.5-2.9,8.9-2.7,13.6-.5Z"/>
  <path class="st34" d="M164.2,163.1c-4.2,0-8.2.1-12.6.2-.7-.1-1-.2-1.6-.8-1-1.7-1.1-2.9.3-4.4,2.1-.9,3.7-1.3,5.5.5,3,.4,5.6.5,8.7.6.5,1,.5,2,.5,3.3-.2.4-.4.4-.8.5Z"/>
  <path class="st96" d="M155.6,168.4c2.7-.4,5.1-.4,8-.4.5,0,.9,0,1.2,0,.5,1.4.8,2.8,1.2,4.6-.1,1-.5,1.4-1.6,1.8-2.7.5-5,.6-7.7,0-.7-.3-1-.4-1.6-1-.9-1.9-1.4-3.4.5-5.1Z"/>
  <path class="st96" d="M183.7,173.4c1.1-.4,1.8-.4,3-.4,3.3,0,6.2,0,9.1,0,2.1,0,3.8.7,4.2,3.5-5,.4-10,.4-15.4.3-1.4-.9-1.9-1.9-.9-3.5Z"/>
  <path class="st66" d="M115.3,146.4c-1.7-.3-3.1-.4-4.9-.4-.4-1.4-.4-2.7-.4-4.5,3-.4,6-.4,9.5-.5.5,1.3.5,2.7.4,4.8-1.5,2.1-2.9,2.3-4.6.6Z"/>
  <path class="st94" d="M136.5,137c.5,2.7.5,5.3.4,8.8-2,2.6-4.1,2.7-6.7,1.6-.6-.4-.8-.6-1.1-1.2-.1-3-.2-5.7-.2-8.7,2.4-.5,4.8-.5,7.6-.5Z"/>
  <path class="st105" d="M123.7,146.5c1.7-.4,3.1-.5,4.9-.6.4,0,.5,0,.5.1,1.3,1.3,2.2,2.6,1,4.8-1.6,1.6-3.1,1.8-5.2,1.4-.8-.1-1-.3-1.6-.8-.9-1.9-1.5-3.4.5-5Z"/>
  <path class="st10" d="M123.6,146.2c.4,1.4.3,2.7.3,4.5-1.3,2-2.9,2.4-4.6,1.1-1.6-1.4-1.5-3,.2-5,.4-.4.5-.6.5-.7,1.1,0,2.1,0,3.6.2Z"/>
  <path class="st110" d="M156.3,132.5c-.3-1.8-.2-3.1-.2-4.8,2.4-.5,4.7-.5,7.8-.4,2,1.6,2,2.9.4,4.5-1,.4-1.7.4-2.7.5-1.8,1-3.2,2.1-5.3.2Z"/>
  <path class="st43" d="M169,119.4c1-.5,2-.6,3.3-.7.6,0,.9.1,1.5.5,1.2,1.7,1,3-.5,4.4-.3.3-.3.3-.3.3-.7.7-1.4,1.5-2.9,1.2-.5-.3-.7-.5-1-1,0-1.7,0-3,0-4.8Z"/>
  <path class="st110" d="M164.1,127.1c.4-2.3,2.1-3,4.6-3.1.4,0,.4.1.4.2.8.7.9,1.4.4,2.7-.2.4-.2.4-.3.4-1.3,1-2.7,2-4.7.3-.4-.3-.4-.4-.5-.4Z"/>
  <path class="st43" d="M178,114c0,1.4,0,2.8,0,4.6,0,.4,0,.4,0,.4-1.2,1.4-2.5,2.1-4.5.4-.4-.3-.5-.5-.6-.5,0-1.4,0-2.8,0-4.5,0-.4,0-.4,0-.4,1.2-1.2,2.5-2,4.5-.4.3.3.5.4.6.5Z"/>
  <path class="st48" d="M182.8,109.4c-1.3.5-2.6.6-4.2.6-.4-1.4-.4-2.8-.4-4.6,1.3-.4,2.7-.4,4.4-.4.4,1.3.4,2.7.3,4.4Z"/>
  <path class="st49" d="M177.8,113.4c-1.4.4-2.7.4-4.5.5-.4-1-.4-2.1-.3-3.5,1.4-.4,2.8-.4,4.6-.4.4,1,.3,2,.2,3.4Z"/>
  <path class="st77" d="M172.6,137c.4,1,.4,2.1.4,3.6,1.1,1.5,2.4,2.7,1.3,5-.3.7-.5,1-1.1,1.5-5.8,1.7-11.2,2.2-17.1,0-1.5-1.6-2.4-3-.8-5.4,6.7.5,11.1-5,17.3-4.6Z"/>
  <path class="st91" d="M173,119.5c1.4-.5,2.7-.5,4.5-.5.6,3-.2,5.1-4.1,5.1-.4-1.4-.4-2.8-.4-4.5Z"/>
  <path class="st91" d="M164.1,127.6c1.4-.4,2.8-.4,4.6-.4.4,2.9-.7,4.9-4.3,4.9-.4-1.3-.4-2.7-.3-4.5Z"/>
  <path class="st91" d="M156,132c1.5,0,2.9,0,4.8.2.3,2.9-.9,4.9-4.5,5.1-.6,0-.9-.2-1.4-.6-1.1-1.8-.8-3,.7-4.3.3-.3.3-.3.3-.3Z"/>
  <path class="st115" d="M156,137.2c0,1.1,0,2.1,0,3.4,0,.4,0,.4,0,.4-1.3,1.4-2.7,2.2-5,.9-1.4-1.5-1.7-2.7-.4-4.4.4-.4.4-.4.4-.5,1.2-1.4,2.5-2.1,4.6-.5.4.3.4.5.4.6Z"/>
  <path class="st91" d="M169.6,127.1c-.4-.7-.5-1.4-.5-2.6,1-.4,2.1-.5,3.6-.5.2,1.9-.9,2.8-3,3.1Z"/>
  <path class="st62" d="M205.3,145.6c-1.7.4-3,.4-4.8.5-1.6,1.1-2.9,2.2-4.6,2.2-6,.1-12.1.9-18.5-1-1-2.1-1.7-3.8.2-5.8,6.1-.4,11.8-.4,17.9-.4,3.2,0,5.9,0,9.1.2,1.8,1.2,2.3,2.6.7,4.5Z"/>
  <path class="st46" d="M177.6,141c.4,1.4.4,2.8.4,4.6-1.2,2.3-2.7,2.5-4.7.8-.3-1.8-.3-3.2-.3-5,1.4-.4,2.8-.4,4.6-.4Z"/>
  <path class="st80" d="M79.2,209.4c0-.3.3-.5.5-.6,1.2-.8,2.2-1.4,3.9-.4.5.3.7.3,1.2.4.3.8.3,1.6.2,2.8-1.3.4-2.7.5-4.4.5-.7-.8-1-1.5-1.3-2.6Z"/>
  <path class="st1" d="M205.4,146c-.4-1.3-.3-2.7-.3-4.4,1.4-.4,2.8-.4,4.6-.4.4,1.3.4,2.7.3,4.4-1.4.4-2.8.4-4.6.4Z"/>
  <path class="st15" d="M155.5,168c.4,1.4.4,2.7.4,4.5-.7,2.2-2.1,2.6-4.2,2.4-1.7,0-3,0-4.2-1.5-.4-1.7-.5-3.1-.5-4.9-1.4-1.7-2.2-3.2-1.1-5.6,1.5-1.6,2.8-1.7,4.5-.3.4.4.5.6.6.7-.2,3,1,4.7,4.5,4.7Z"/>
  <path class="st37" d="M137.2,181.5c-.8.5-1.6.5-2.8.6-3.1.1-2.8-4-5.9-4.1-.5-.5-.6-.7-.8-1.4-.7-1.7,0-2.7.7-4.1,1.7-1.3,3.2-1.7,5.3-1.4,1.5,0,2.4.4,3.8.9,1.4,1.5,1.5,2.7.3,4.5-.4,1.8-.5,3.2-.6,4.9Z"/>
  <path class="st30" d="M137.9,176.9c-.6-1-.8-2-1-3.3-1.1-1.7-1.6-3.2-.9-5.4,1.3-1.7,2.7-2.4,4.9-1.7.7.4.9.6,1.3,1.3-.8,3.5,1.6,8.2-4.3,9.1Z"/>
  <path class="st55" d="M146.9,162.9c.2,1.8.1,3.2,0,4.9-1.3.4-2.6.5-4.3.5-.4,0-.5-.1-.6-.2-1.7-1.4-2.2-3-.8-5.4,2-1.5,3.7-2.1,5.5.2Z"/>
  <path class="st2" d="M147.1,173.5c1.1-.4,2.1-.4,3.5-.4,1.4.9,1.8,1.9.8,3.5-.3.3-.4.4-.4.5-1,0-2,0-3.4,0-.4-1.1-.4-2.1-.4-3.5Z"/>
  <path class="st0" d="M129.4,222c-.5-1.4-.5-2.7-.6-4.5,0-.4.2-.5.3-.5,1.3-1.4,2.6-2,4.6-.3.3,1.7.3,3.2.2,5-1.4.4-2.7.4-4.4.3Z"/>
  <path class="st116" d="M133.9,216.5c-1.3.5-2.7.5-4.4.4-.5-1.4-.6-2.7-.7-4.5-3.5-3.9-2-8.4-2.2-13,0-3.5-.3-6.5,1.6-9.7,1.9-1.5,3.4-1.9,5.3,0,.4,9,.4,17.7.4,26.8Z"/>
  <path class="st0" d="M133.9,189.6c-1.4.4-2.7.4-4.8.2-2.7-2.2-2.4-4.6-2.2-7.5,0-2,0-3.5,1.8-4.8,3.4-.5,5.2.6,5.3,4.2,0,2.8,0,5.1,0,7.9Z"/>
  <path class="st0" d="M128.5,198.6c.4,4.4.4,8.5.4,13-1.3.4-2.7.4-4.4.3-.4-4-.4-8-.5-12.4,0-.5,0-.5,0-.5,1.2-1.3,2.5-2,4.5-.4Z"/>
  <path class="st69" d="M110.3,189.7c-.4,2.2-.4,4.2-3,5.2-1.4,1.1-2.3,2.4-4.5,1.6-.7-.2-.9-.4-1.5-.8-.9-1.6-1.6-2.9-.9-4.7.2-.7.3-.9.6-1.5,1.4-1.4,3.5-.4,4.5-2.6.4-.5.6-.7,1.2-1.1,1.2-.3,2-.5,3.2,0,.6.3.8.5,1.2,1,.4,1.3.2,2-.8,3Z"/>
  <path class="st69" d="M102.3,198.5c-3,.4-5.6.5-8.8.6-.4,0-.5-.1-.6-.2-1-.9-1.8-1.9-1.2-3.7.4-.7.5-.9,1.2-1.4,3.1-1.1,5.9-1.9,8.7.8.3.3.4.4.4.4,1,1,1.3,2,.3,3.5Z"/>
  <path class="st84" d="M102.3,198.9c-.4-1-.3-2-.3-3.4,1.4-.4,2.8-.4,4.5-.4.3,2.7-1.2,4-4.2,3.9Z"/>
  <path class="st84" d="M110.4,190c-.4-.7-.4-1.5-.4-2.6,1.1-2.3,2.5-2.4,4.5-.8.4,1.1.4,1.9.4,3-1.4.4-2.7.4-4.5.5Z"/>
  <path class="st70" d="M92.8,194.6c.3,1.5.2,2.5.2,3.9-1.4.4-2.7.5-4.5.6-1.4.9-2.4,1.4-4,.4-.3-.3-.4-.4-.5-.4,0-1.1,0-2.1,0-3.6,0-.4,0-.4,0-.4,2.6-2.7,5.4-3,8.7-.4Z"/>
  <path class="st69" d="M84.1,199.5c1.1-.4,2.1-.4,3.6-.5.4,1.3.3,2.6.3,4.3-1.1.5-2.1.5-3.5.6-.4-1.4-.3-2.7-.3-4.5Z"/>
  <path class="st84" d="M83.9,208.3c-1.1.4-2.2.5-3.7.5-.3-2.4,0-4.5,3.4-4.8.3,1.3.3,2.6.2,4.2Z"/>
  <path class="st110" d="M156,136.5c-1.4.5-2.7.5-4.5.5-.6-3,.4-5,4.2-5,.4,1.4.4,2.7.3,4.5Z"/>
  <path class="st99" d="M150.6,137.2c.4,1.1.4,2.1.3,3.8-.8,1.5-1.7,1.8-3,1.3-.5-.3-.7-.5-.9-1,0-1.4,0-2.4,0-3.8,1.1-.4,2.1-.3,3.6-.3Z"/>
  <path class="st99" d="M142.1,141.3c1.4-.4,2.7-.4,4.4-.4.4,0,.5.1.6.2,1.4,1.2,2.2,2.5,1.1,4.6-1.3,1.7-2.7,2.3-4.7,1.8-.6-.4-.9-.6-1.3-1.3-.1-1.8,0-3.2,0-5Z"/>
  <path class="st81" d="M137,145.9c1.4,0,2.7,0,4.5,0,.4,0,.5.1.5.2,1.6,1.4,1.9,3,.6,5.2-1.9,1.6-3.5,1.9-5.7.7-1.6-1.8-2.2-3.4-.4-5.5.4-.4.4-.5.4-.6Z"/>
  <path class="st1" d="M173,146c1.4,0,2.8,0,4.6,0,7.5,0,14.5,0,22,0,.4,1.4.4,2.7.4,4.5-7.1.4-14.2.5-21.3.5-2.3,0-4.8-.1-5.6,3.2-5.4.5-10.6.6-16.4.8-1.7,1-2.8,2.3-5.2,1.3-.7-.3-1-.5-1.5-1.1-.5-1.7-1.3-2.8-.3-4.6,1.6-1.3,3-1.6,5-1.8,6.2-1.1,12.3,1.1,18.1-2.6.3-.3.3-.3.3-.3Z"/>
  <path class="st102" d="M150.8,155.5c1.8-.3,3.2-.4,5-.4.4,1.1.4,2.1.4,3.5-1.3.4-2.7.5-4.5.6-1.9-.8-2-2-.9-3.7Z"/>
  <path class="st80" d="M129,177.2c0,1.4,0,2.6-.3,4.3-2.3,2.4-2,5.6-4.1,8.3-1.7.3-2.7.3-4.2.3-.4-1.1-.5-2.1-.5-3.6-2.3-2.6-2.5-5.2-1.4-8.4.3-.7.4-1,.9-1.6,1.4-.9,2.5-1.3,4.2-1.3,1.9,0,3.5-.2,4.8,1.5.3.4.5.6.6.6Z"/>
  <path class="st33" d="M128.9,198.5c-1.4.5-2.7.5-4.5.5-.4-2.7-.4-5.4-.4-8.6,0-.5,0-.5,0-.5,1.2-1.2,2.4-2,4.3-.5.3.4.5.4.6.5,0,2.7,0,5.4,0,8.5Z"/>
  <path class="st84" d="M119.7,176.6c.3,3.1.3,5.8.2,8.9-1.4.5-2.7.5-4.4.5-2-.6-2.5-2-2.4-4.1,0-6.7,1.1-7.6,6.7-5.3Z"/>
  <path class="st69" d="M114.5,181.5c.4,1.5.4,2.6.5,4.2,0,.4,0,.8,0,1-1.4.2-2.8.3-4.5.3-.4,0-.5,0-.5,0-1.3-1.3-1.9-2.6-.4-4.7.3-.4.3-.5.3-.5,1.3-1,2.7-2,4.7-.3Z"/>
  <path class="st124" d="M119.6,146.2c.5,2.3.9,4.3,4,4.8.4,0,.5,0,.6,0,.7.7,1.3,1.4,1.2,2.9-.1.8-.2,1-.6,1.7-1.4.9-2.5,1.4-4.3,1.4-2,0-3.6.2-4.9-1.7-.4-1.4-.5-2.5-.6-3.9,0-1.8,0-3.1,0-4.9,1.4-.4,2.8-.4,4.6-.3Z"/>
  <path class="st50" d="M101.9,172.7c-1.3,6.6-3.4,8.6-9.3,9.3-1.9.2-3.5.6-4.8,2.2-.5.6-1.2,1.4-1.9,1.5-6.5.6-12.2,4.8-19.4,4.4-1-.6-1.6-1.1-1.8-2.3.1-.6.2-.9.6-1.4,1.6-.9,3-1.5,4.8-2.2,1.9,0,3.3-.3,3.8-2.5.4-.5.6-.6,1.1-.9,1.6-.5,2.8-.9,4.5-.8,6.5-.3,9.6-5.1,13.9-8.9,3.2-.3,6.1-1.2,8.6,1.6Z"/>
  <path class="st27" d="M102.5,173.1c-3.1,0-5.8,0-8.9,0-1.8,1.3-3.2,2.1-5.3.3-.4-4.1,1.6-5.5,5-5.4,3.8,0,7.5.3,10-3.9,1-1.7,3.7-.9,6.1-1.1.7,0,.9.1,1.5.5,2,2.8,1.9,5.4.6,8.4-.4.5-.6.7-1.2,1-2.7,0-5,0-7.7.1Z"/>
  <path class="st52" d="M114.9,181.4c-1.4.4-2.8.4-4.6.3-.4-2.6-.4-5.2-.4-8.2,0-.4,0-.6,0-.7,3.1-2.7,6.3-2.5,10.1-.7,1.4,1.5,1.6,2.8.4,4.5-.3.4-.4.4-.4.5-3-.3-4.9.7-5.1,4.4Z"/>
  <path class="st107" d="M93,195c-2.7,0-5.4,0-8.6,0-.4-2.3.1-4.4,3.2-5,1.7-1.5,3.3-1.7,5.6-.9,1.4,1.9,2,3.5.1,5.5-.4.4-.4.4-.4.4Z"/>
  <path class="st51" d="M93.5,190.5c-1.8-.4-3.2-.4-5-.5,1.5-4.3,5.2-3.7,9.2-3.2,1.1.9,1.6,1.9,1.2,3.5-1.8,2-3.4,1.9-5.3.1Z"/>
  <path class="st107" d="M101.9,187.2c0-3.2,1-5.2,4.6-5.2,1.7,1.2,2.5,2.5.8,4.6-.4.3-.4.4-.4.4-.9,1.1-2,1.9-3.9,1.3-.6-.3-.8-.4-1.1-1Z"/>
  <path class="st72" d="M65.6,186.5c.3,1.2.3,2,.4,3.1-1.3.5-2.7.5-4.5.6-.4,0-.5-.2-.5-.3-.7-.7-.9-1.5-.4-2.7.2-.3.2-.5.2-.5,1.4-1.1,2.8-2.1,4.8-.3Z"/>
  <path class="st70" d="M107.3,186.9c-.4-1.4-.4-2.8-.4-4.5.7-.4,1.5-.5,2.6-.5.4,1.4.4,2.8.5,4.6-.8.4-1.5.4-2.7.4Z"/>
  <path class="st107" d="M98.3,190.4c-.3-1.1-.3-1.9-.3-3,1-.4,2.1-.4,3.5-.5.4,0,.5,0,.5.1.7.7,1,1.5.3,2.7-.3.3-.3.3-.3.3-1,1-2.1,1.5-3.8.3Z"/>
  <path class="st27" d="M60.5,186.9c.4.7.4,1.5.5,2.6-1,.4-2.1.5-3.5.5-.4-.7-.4-1.4-.4-2.5,1-.4,2-.5,3.4-.6Z"/>
  <path class="st6" d="M65.9,186.9c-1.4,0-2.8,0-4.6-.1-.4-1.3-.3-2.6-.2-4.3,1.4-.4,2.8-.4,4.6-.4,1.6,1.2,2.3,2.5.7,4.4-.4.3-.4.4-.4.4Z"/>
  <path class="st27" d="M66.3,186.8c-.3-1.3-.3-2.6-.3-4.3,1.3-.5,2.7-.6,4.4-.8.7,0,.9.1,1.4.5.8,1.4.6,2.4-.7,3.5-1.7.6-3.1.8-4.9,1.1Z"/>
  <path class="st6" d="M70.9,181.8c0-2.4.6-4.4,3.7-4.9.4,0,.5,0,.5,0,1.2,1.3,2,2.6.2,4.6-.4.3-.4.4-.4.4-.9,1-1.9,1.5-3.6.5-.4-.3-.4-.5-.5-.6Z"/>
  <path class="st72" d="M87.6,173.1c1.8,0,3.2,0,5,0-2.5,4.6-5.6,9-12.3,8.8-1.7-1.2-2.3-2.6-.7-4.5,3.7.1,5-3.2,8-4.3Z"/>
  <path class="st130" d="M109.9,160.3c1.4-.7,2.9-1.1,4.7-1.4,1.8-1.6,3.4-1.9,5.8-.8,1.6,1.5,1.6,2.9.6,4.8-3.5,2.8-6.8,3.3-10.7.7-.4-.3-.5-.4-.6-.5,0-.8,0-1.6.1-2.8Z"/>
  <path class="st27" d="M79.5,177c.4,1.4.4,2.7.4,4.5-1.4.4-2.8.4-4.5.4-.4-1.4-.3-2.7-.3-4.4,1.4-.4,2.7-.4,4.5-.4Z"/>
  <path class="st44" d="M120.3,158.8c-1.8.2-3.1.2-4.9,0-.3-1.1-.3-2.1-.2-3.6,1.4-.4,2.7-.3,4.4-.3,1.4,1,1.8,2.2.6,3.8Z"/>
  <path class="st28" d="M183.5,173.1c.5,1,.5,2.1.6,3.5-6.3.4-12.6.4-19.4.4-.4,0-.5,0-.6-.1-1.1-.9-1.4-1.9-.4-3.4.8-.4,1.2-.4,2-.4,6,0,11.7,0,17.8.1Z"/>
  <path class="st32" d="M151.5,176.9c-.4-1-.5-2-.5-3.4,1.4-.4,2.7-.5,4.5-.6.4,0,.5,0,.6.1.9.9,1.4,1.8.5,3.4-.3.3-.4.5-.5.5-1.4,0-2.8,0-4.6,0Z"/>
  <path class="st12" d="M156.7,176.7c-.5-1-.5-2-.6-3.3,2.3-.4,4.6-.4,7.4-.4.5,1,.5,2,.5,3.4-2.3.4-4.6.4-7.3.3Z"/>
  <path class="st87" d="M151.1,155.1c0,1.1,0,2.2.1,3.7,0,1.4-.2,2.4-.3,3.8-1,.5-2,.6-3.4.7-1.6,0-2.9,0-4.5-.2-.7,0-1,0-1.6-.4-1-1.2-1.5-2.2-1.1-3.8,2-2,5.3-1.5,6.4-4.8,1.5-.7,2.6-.8,3.8.5.3.3.5.5.6.6Z"/>
  <path class="st109" d="M136.6,146.1c.5,1.3.5,2.7.3,4.8-2,2.4-4.3,1-6.7,1.4-.6-.4-.7-.5-1-1.1-.1-1.7-.1-3-.1-4.7,2.4-.4,4.7-.4,7.5-.4Z"/>
  <path class="st35" d="M124.5,154.6c-.4-1.1-.4-1.9-.3-3.1,1.4-.4,2.8-.5,4.5-.6.4,0,.5,0,.5,0,.7.8,1.1,1.7.5,3.2-1.7,1.4-3.2,2-5.2.4Z"/>
  <path class="st46" d="M172.5,146c-.5,3.6-3,5.1-6.6,5-3,0-6,0-9.4,0-1.7-1-2.7-2.1-1.1-4.4,6-.6,11.4-.6,17.2-.6Z"/>
  <path class="st26" d="M151,141c1.4,0,2.8,0,4.6,0,.4,1.4.4,2.8.4,4.5,0,.4,0,.4,0,.4-1.1,1.1-2.2,2.3-4.5,1.4-.7-.3-1-.5-1.5-1-.8-1.9-1.3-3.4.7-5,.3-.3.3-.3.3-.3Z"/>
  <path class="st67" d="M134.2,172.6c-1.7.4-3,.4-5.1.3-2.2-1.7-2-3.3-.7-5.3,1.9-1.4,3.5-1.6,5.7-.4,1.5,1.9,1.8,3.5.1,5.5Z"/>
  <path class="st86" d="M128.7,176.6c-1.5.4-2.8.4-4.6.5-1.2-1.1-1.9-2.3-.9-4.1,1.8-1.5,3.3-2.1,5.4-.5.4.3.5.5.6.6,0,1.1-.2,2.2-.4,3.6Z"/>
  <path class="st98" d="M134.2,173c-.3-1.4-.2-2.7,0-4.8.7-1.3,1.4-1.5,2.4-1.2.4.4.5.6.6,1.2-.1,1.7-.2,3-.3,4.7-.8.3-1.6.3-2.7.2Z"/>
  <path class="st100" d="M142.4,163c0,1.4-.1,2.8-.3,4.6-1.4.5-2.8.7-4.6.9-.4,0-.5-.2-.5-.3-1.5-1.4-1.6-3.1-.8-5.3,1.8-1.5,3.4-2.1,5.4-.3.4.3.7.4.8.4Z"/>
  <path class="st113" d="M128.7,189.4c-1.3.5-2.6.5-4.3.5,0-3.1-1.8-7.3,3.9-8.1.4,2.3.4,4.7.4,7.5Z"/>
  <path class="st70" d="M97.5,190c1.5,0,2.6,0,4.1,0,.4,1.4.4,2.7.3,4.5-2.7.4-5.4.5-8.5.5-.4-1.4-.4-2.8-.4-4.6,1.4-.4,2.7-.5,4.5-.5Z"/>
  <path class="st70" d="M102.4,190c-.4-.7-.4-1.5-.4-2.6,1.4-.4,2.7-.4,4.5-.4,0,2.4-1.6,3-4.1,3.1Z"/>
  <path class="st115" d="M150.6,141c.4,1.4.4,2.8.3,4.6-.6,1.7-1.6,1.9-3.4.9-.5-2-.5-3.3-.4-5,1-.4,2.1-.5,3.5-.5Z"/>
  <path class="st47" d="M142.8,151.7c-.6-2.1-.6-3.4-.6-5.1,1.4-.5,2.8-.6,4.6-.7.4,0,.5,0,.6.1,1.4,1.3,1.8,2.9,1.2,5.1-1.8,1.3-3.3,2.1-5.7.5Z"/>
  <path class="st54" d="M137.1,150.9c1.4,0,2.8,0,4.6,0,.4,0,.4,0,.5,0,.9.9,1.7,1.8,1.1,3.6-.3.7-.5.9-1,1.4-1.9.9-3.4,1-5.3,0-.6-.4-.8-.7-1.2-1.3-.2-1.4-.2-2.3.9-3.4.3-.3.4-.5.4-.5Z"/>
  <path class="st22" d="M146.7,151.3c.4-1.7.4-3,.5-4.8,1-.4,2-.4,3.3-.5.4,0,.4,0,.5,0,1.4,1.2,2,2.5.4,4.6-.4,1.4-.4,2.4-.6,3.8-1.1.4-2.1.5-3.9.3-1.5-1.2-1.5-2.2-.3-3.5Z"/>
  <path class="st45" d="M151.6,151.1c-.4-1.4-.5-2.7-.5-4.5,1.4-.4,2.8-.5,4.6-.5.4,1.4.4,2.7.4,4.5-1.4.4-2.7.5-4.5.5Z"/>
  <path class="st84" d="M123.6,172.5c.3,1.7.2,2.7,0,4.2-1,.4-1.9.4-3.3.4-.4-1-.5-2-.5-3.3,0-.6,0-.9.3-1.4,1.1-.9,2.1-1,3.4.2Z"/>
  <path class="st85" d="M119.9,159.5c0-1.5.1-2.6.2-4.1,1-.4,2-.5,3.4-.5,1.8.4,2.5,1.3,2.5,3.3,0,1.7,0,3-.8,4.5-1,1.5-2.1,1.9-3.8,1.7-.7-.3-.9-.5-1.4-1-.2-1.4-.1-2.5-.1-3.9Z"/>
  <path class="st117" d="M124.5,159.5c-.4-1.4-.5-2.6-.6-4.1,0-.4.1-.8.2-1,1.4-.3,2.8-.4,5-.3,2.1,2.1,1.4,3.9-.1,5.8-1.7.7-2.9,1-4.4-.4Z"/>
  <path class="st72" d="M71,182.5c1.1-.4,2.1-.5,3.6-.5.3,2.2-.4,3.7-3.2,4-.4-1-.3-2-.3-3.4Z"/>
  <path class="st101" d="M109.9,163.7c3-.5,6-.5,9.4-.6.4,0,.6,0,.6.1,1.4,1,2.3,2.2,2,4.5.2,2,.1,3.6-1.6,5-.3.3-.4.5-.4.6-3,0-6-.3-9.5-.5-.5-2.9-.5-5.8-.5-9.1Z"/>
  <path class="st122" d="M136.8,155c1.8,0,3.1,0,4.8,0,1.8.9,1.9,2,1.1,3.8-.3,1.4-.4,2.4-.6,3.7-1.3.5-2.6.6-4.3.8-.7,0-1-.2-1.6-.6-1.5-2.9-2.2-5.3.7-7.7Z"/>
  <path class="st111" d="M142.8,159.2c-.5-1.1-.6-2.2-.8-3.8,0-.4.2-.5.3-.6,1.2-1.5,2.5-1.8,4.2-.3.3.3.4.3.4.4,0,2.6-1.2,4-4.2,4.3Z"/>
  <path class="st60" d="M136.6,151.1c.4.8.4,1.6.4,2.8-2.2,2.2-4.5,3-7.5.8-.4-.3-.5-.6-.5-.8,0-.9,0-1.6,0-2.6,2.4-.3,4.7-.3,7.5-.2Z"/>
  <path class="st79" d="M129,172.3c-1.4.5-2.8.6-4.6.8-.4,0-.5,0-.6,0-.9-1.2-2.1-2.2-1.3-4.4.3-.7.4-1,.9-1.5,1.7-.8,3.1-1.6,5.1.2.5,2,.5,3.3.5,4.9Z"/>
  <path class="st71" d="M134,168c-1.4,0-2.8,0-4.6,0-.4,0-.4,0-.5,0-1.1-1.1-1.8-2.3-.8-4.4,1.9-1.5,3.6-2.1,5.9-.8,1.5,1.6,1.7,2.9.4,4.7-.4.4-.3.5-.3.5Z"/>
  <path class="st128" d="M134.4,168c-.4-1.1-.4-2.2-.5-3.6,0-2.2,1.1-2.2,2.8-1.6.4.3.5.5.6.6,0,1.4-.1,2.7-.3,4.3-.8.4-1.5.4-2.7.3Z"/>
  <path class="st118" d="M147,154.5c-1.3.4-2.5.4-4.1.3-.5-1-.6-2-.7-3.4,1.3-.4,2.7-.4,4.4-.4.4,1,.4,2.1.4,3.5Z"/>
  <path class="st17" d="M137.1,162.5c-.9.7-1.7.9-2.9,1.3-1.6.2-3,.2-4.7.2-1,.1-1.6,0-2.4-.7-.7-1.5-.8-2.7.6-4,.6-1.6.9-2.9,1.4-4.5,2.4-1.1,4.8-.4,7.5-.4.4,0,.6.3.7.4,0,2.5,0,4.9-.1,7.8Z"/>
  <path class="st120" d="M123.3,167.7c.3,1.7.4,3.1.4,4.9-1,.4-2,.4-3.4.4-.4-1.4-.4-2.8-.3-4.6.9-1.3,1.8-1.7,3.3-.7Z"/>
  <path class="st92" d="M123.7,168.1c-1.1,0-2,0-3.3,0-.4-1.3-.4-2.7-.5-4.4,1-.4,2.1-.4,3.9-.3,2,1.4,2.2,2.7.6,4.3-.3.3-.6.4-.8.4Z"/>
  <path class="st61" d="M127.6,159c.4,1,.4,2.1.4,3.6-.9,1.7-2,1.9-3.7.9-.4-.3-.4-.3-.5-.3,0-1.1.1-2.1.2-3.6,1.1-.4,2.1-.5,3.5-.6Z"/>
  <path class="st5" d="M123.9,163.5c1.1-.4,2.2-.5,3.7-.5.7.2.9.4,1.3.8.1,1.2.1,2.3,0,3.8-1.3.4-2.7.4-4.4.4-.5-1.3-.6-2.7-.7-4.4Z"/>
</svg>